<svg width="120" height="120" viewBox="0 0 120 120" fill="none" xmlns="http://www.w3.org/2000/svg">
<path d="M98.8276 62.4245C99.0019 62.5986 99.1402 62.8054 99.2346 63.033C99.329 63.2606 99.3775 63.5046 99.3775 63.751C99.3775 63.9974 99.329 64.2414 99.2346 64.4691C99.1402 64.6967 99.0019 64.9035 98.8276 65.0776L61.3276 102.578C61.1535 102.752 60.9467 102.89 60.7191 102.985C60.4914 103.079 60.2474 103.128 60.001 103.128C59.7546 103.128 59.5106 103.079 59.283 102.985C59.0554 102.89 58.8486 102.752 58.6745 102.578L21.1745 65.0776C20.8227 64.7258 20.625 64.2486 20.625 63.751C20.625 63.2535 20.8227 62.7763 21.1745 62.4245C21.5263 62.0727 22.0035 61.875 22.501 61.875C22.9986 61.875 23.4758 62.0727 23.8276 62.4245L60.001 98.5979L96.1745 62.4245C96.3486 62.2502 96.5554 62.1119 96.783 62.0175C97.0106 61.9231 97.2546 61.8746 97.501 61.8746C97.7474 61.8746 97.9914 61.9231 98.2191 62.0175C98.4467 62.1119 98.6535 62.2502 98.8276 62.4245ZM58.6745 65.0776C58.8486 65.2519 59.0554 65.3902 59.283 65.4846C59.5106 65.579 59.7546 65.6275 60.001 65.6275C60.2474 65.6275 60.4914 65.579 60.7191 65.4846C60.9467 65.3902 61.1535 65.2519 61.3276 65.0776L98.8276 27.5776C99.0018 27.4034 99.14 27.1966 99.2343 26.969C99.3286 26.7414 99.3771 26.4974 99.3771 26.251C99.3771 26.0047 99.3286 25.7607 99.2343 25.5331C99.14 25.3055 99.0018 25.0987 98.8276 24.9245C98.6534 24.7503 98.4466 24.6121 98.219 24.5178C97.9914 24.4235 97.7474 24.375 97.501 24.375C97.2547 24.375 97.0107 24.4235 96.7831 24.5178C96.5555 24.6121 96.3487 24.7503 96.1745 24.9245L60.001 61.0979L23.8276 24.9245C23.4758 24.5727 22.9986 24.375 22.501 24.375C22.0035 24.375 21.5263 24.5727 21.1745 24.9245C20.8227 25.2763 20.625 25.7535 20.625 26.251C20.625 26.7486 20.8227 27.2258 21.1745 27.5776L58.6745 65.0776Z" fill="white"/>
</svg>
