<?xml version="1.0" encoding="UTF-8" standalone="no"?>
<svg viewBox="0 0 221 22" preserveAspectRatio="none" fill="none" xmlns="http://www.w3.org/2000/svg">
  <g transform="matrix(1.0, 0.0, 0.0, 1.0, 110.4, 11.05)">
    <path d="M95.9 -10.95 L109.95 -0.1 95.9 10.65 93.4 8.85 91.3 10.6 -91.8 10.6 -93.9 8.85 -96.4 10.65 -110.4 -0.1 -96.4 -10.95 -94.0 -9.2 -91.8 -11.05 91.35 -11.05 93.55 -9.2 95.9 -10.95 M94.75 -6.2 L95.15 -6.05 95.85 -6.55 104.2 -0.1 95.85 6.3 94.85 5.5 Q94.05 6.3 94.05 6.85 L95.9 8.15 106.65 -0.1 95.9 -8.45 93.9 -6.95 94.75 -6.2 M93.1 -2.0 L93.1 1.7 93.25 1.85 95.75 -0.15 93.35 -2.2 93.1 -2.0 M90.05 -7.55 L98.9 -0.15 90.05 7.1 -90.55 7.1 -99.35 -0.15 -92.6 -5.75 -92.45 -5.9 -90.55 -7.55 90.05 -7.55 M91.85 -5.2 L91.65 -5.3 89.6 -3.75 89.6 3.45 91.7 5.05 92.0 4.95 92.8 4.0 91.1 2.7 91.1 -3.0 92.7 -4.2 91.85 -5.2 M90.6 -9.05 L-91.05 -9.05 -101.7 -0.15 -95.1 5.25 -95.1 5.3 -91.05 8.6 90.6 8.6 101.25 -0.15 90.6 -9.05 M-94.4 -6.95 L-96.35 -8.45 -107.15 -0.1 -96.35 8.15 -94.55 6.85 Q-94.55 6.35 -95.3 5.5 L-96.35 6.3 -104.7 -0.1 -96.35 -6.55 -95.65 -6.05 -95.25 -6.2 -94.8 -6.65 -94.4 -6.95 M-93.8 -2.2 L-96.25 -0.15 -93.75 1.85 -93.55 1.7 -93.55 -2.0 -93.8 -2.2 M-93.2 -4.2 L-91.55 -3.0 -91.55 2.7 -93.25 4.0 -92.5 4.95 -92.2 5.05 -90.05 3.45 -90.05 -3.75 -92.15 -5.3 -92.5 -5.05 -93.2 -4.2" fill="#000000" fill-opacity="0.6" fill-rule="evenodd" stroke="none"/>
    <path d="M94.75 -6.2 L93.9 -6.95 95.9 -8.45 106.65 -0.1 95.9 8.15 94.05 6.85 Q94.05 6.3 94.85 5.5 L95.85 6.3 104.2 -0.1 95.85 -6.55 95.15 -6.05 94.75 -6.2 M91.85 -5.2 L92.7 -4.2 91.1 -3.0 91.1 2.7 92.8 4.0 92.0 4.95 91.7 5.05 89.6 3.45 89.6 -3.75 91.65 -5.3 91.85 -5.2 M90.05 -7.55 L-90.55 -7.55 -92.45 -5.9 -92.6 -5.75 -99.35 -0.15 -90.55 7.1 90.05 7.1 98.9 -0.15 90.05 -7.55 M-94.4 -6.95 L-94.8 -6.65 -95.25 -6.2 -95.65 -6.05 -96.35 -6.55 -104.7 -0.1 -96.35 6.3 -95.3 5.5 Q-94.55 6.35 -94.55 6.85 L-96.35 8.15 -107.15 -0.1 -96.35 -8.45 -94.4 -6.95 M90.6 -9.05 L101.25 -0.15 90.6 8.6 -91.05 8.6 -95.1 5.3 -95.1 5.25 -101.7 -0.15 -91.05 -9.05 90.6 -9.05 M-93.2 -4.2 L-92.5 -5.05 -92.15 -5.3 -90.05 -3.75 -90.05 3.45 -92.2 5.05 -92.5 4.95 -93.25 4.0 -91.55 2.7 -91.55 -3.0 -93.2 -4.2" fill="#bbbdbf" fill-opacity="0.6" fill-rule="evenodd" stroke="none"/>
  </g>
</svg>
