<svg width="2222" height="2228" viewBox="0 0 2222 2228" fill="none" xmlns="http://www.w3.org/2000/svg">
<path d="M1711 938.27L1282.11 27.6828C1282.11 27.6828 1277.38 22.9112 1272.23 22.4911C1272.23 22.4911 1268.64 30.5624 1267.82 38.5778C1263.01 85.234 1268.77 88.7005 1254.89 109.028C1247.47 119.897 1235.49 136.336 1235.49 139.234C1235.5 148.049 1240.38 147.178 1248.99 138.974C1253.36 134.8 1261.99 131.376 1266.8 129.559C1274.53 126.636 1279.06 129.341 1283.7 132.698C1287.85 135.7 1289.49 142.099 1291.1 146.166C1292.72 150.233 1318.41 250.982 1349.56 370.504C1399.79 563.238 1406.71 576.942 1404.92 592.604C1404.92 592.604 1407.1 617.382 1402.53 626.599C1395.11 641.539 1366.31 665.443 1366.31 665.443C1330.51 699.694 1330.44 694.115 1333.05 703.897C1335.45 712.89 1335.27 712.132 1344.38 711.367C1349.89 710.906 1358.4 710.346 1361.7 707.249C1370.99 698.525 1393.79 685.539 1406.11 687.036C1432.75 690.269 1430.57 694.25 1460.25 808.781C1473.19 858.734 1479.06 888.032 1483.33 906.067C1488.9 929.592 1484.86 937.858 1469.03 954.166C1446.01 977.881 1406.81 989.31 1364.74 982.524C1341.18 978.724 1326.11 966.306 1323.46 957.954C1320.71 949.281 1319.95 934.438 1324.39 924.034C1331.58 907.182 1346.94 892.614 1363.02 884.93C1372.63 880.338 1381.07 877.103 1380.49 875.042C1378.45 867.805 1313.63 888.447 1289.66 908.421C1271.36 925.474 1255.9 942.424 1243.88 963.616L1245.06 945.973C1246.19 929.027 1245.57 928.684 1254.62 914.393C1257.06 910.55 1264.51 904.677 1263.68 903.435C1262.39 901.512 1252.04 901.052 1243.05 905.404C1213.63 920.663 1209.77 943.352 1193.33 965.088C1192.51 965.091 1188.73 957.083 1184.93 947.29C1174.49 920.374 1157.67 898.13 1116.34 854.404C1076.75 812.52 1069.06 798.866 1069.09 774.961C1069.11 762.641 1079.03 740.58 1090.63 727.748C1105.03 711.807 1115.75 709.932 1146.28 695.225C1218.51 660.435 1243.86 638.321 1258.24 600.114C1266.33 578.641 1265.75 562.049 1259.9 532.982C1249.34 480.502 1200.52 441.205 1133.42 431.167L1119.33 429.06C1125.25 416.223 1135.66 406.775 1145.39 398.823C1149.8 395.143 1162.36 387.795 1173.48 382.201C1218.81 359.398 1219.19 358.62 1224.13 335.881C1225.53 329.457 1227.4 325.847 1225.19 325.694C1222.66 325.52 1216.89 329.931 1212.4 337.229C1205.93 347.736 1202.38 349.251 1179.79 355.695C1143.24 366.121 1113.98 371.554 1076.5 373.544C1071.06 373.544 1069.11 371.969 1069.11 367.581C1069.11 364.301 1062.89 344.669 1055.29 323.954C1037.98 276.81 1035.95 261.666 1043.44 241.554C1049.96 224.069 1053.46 222.663 1048.59 222.81C1041.62 223.021 1020.37 246.032 1016.6 261.858C1013.56 274.661 1013.71 285.452 1017.46 322.796L1022.01 368.175L1003.76 400.645C986.334 431.65 985.591 433.797 987.298 448.213C988.931 462 988.032 465.221 976.932 485.327C965.121 506.721 964.824 507.939 966.416 528.437C968.446 554.557 969.585 557.479 980.178 563.736C986.782 567.637 991.083 570.992 993.249 569.952C994.903 569.158 995.159 565.031 995.159 561.199C995.159 546.611 1006.59 528.739 1031.15 504.914C1046.9 489.634 1061.88 478.153 1072.64 473.112C1081.9 468.773 1090.27 463.938 1091.24 462.368C1136.49 454.652 1200.95 493.095 1220.38 529.731C1234.4 558.561 1228.09 588.36 1195.91 616.973C1174.33 636.155 1156.96 644.666 1102.63 662.998C1030.58 686.906 986.045 733.901 984.07 790.588C982.493 824.214 982.314 823.514 1017.09 919.25C1021.23 930.637 1024.64 943.821 1024.68 948.547C1024.7 951.651 1023.79 953.469 1023.79 953.469C1023.79 953.469 1019.75 949.438 1013.43 939.673C1007.21 930.067 997.096 921.288 991.432 916.331C980.199 906.498 963.149 895.814 960.157 898.805C957.392 901.57 968.322 912.607 971.494 916.912C980.226 928.76 978.618 942.814 978.423 954.004C978.335 959.056 977.467 962.137 977.467 962.137C963.277 943.492 950.431 918.798 931.438 902.851C910.883 886.457 866.156 874.43 847.736 874.325C835.618 874.255 842.914 878.812 860.751 887.336C889.802 901.374 908.177 938.522 898.352 959.978C893.197 969.257 881.485 975.042 856.576 979.198C805.534 987.716 754.785 963.573 742.693 928.086C738.614 916.116 739.225 912.782 764.437 809.552C778.705 751.132 791.343 700.372 792.522 696.752C795.635 687.19 811.568 684.992 831.721 691.344C844.608 695.406 852.401 700.883 870.178 718.372C882.439 730.436 894.168 741.969 895.562 741.969C895.562 741.969 898.104 732.755 893.017 710.728C888.62 691.687 887.188 694.575 851.711 660.887C837.755 647.636 830.016 640.29 824.728 634.398C816.674 625.425 814.45 623.248 814.541 614.437C814.591 609.62 815.554 595.302 816.579 590.602C848.359 444.815 881.809 293.903 930.725 138.122C933.748 133.11 941.426 128.557 945.825 129.159C958.315 130.869 980.016 168.89 984.555 168.114C987.384 142.098 963.199 108.107 952.267 91.6664C952.267 91.6664 956.342 5.70625 943.355 0L511 943.991C641.433 1246.37 822.036 1574.37 938.912 1856.74C940.483 1860.87 943.797 1864.25 946.278 1864.25C950.269 1864.25 950.788 1844.05 950.788 1688.75V1513.25L932.899 1508.28C906.65 1500.98 895.529 1495.04 859.241 1452.71C827.449 1415.63 826.815 1411.43 825.009 1394.82C823.753 1383.26 825.244 1364.73 829.597 1337.77C838.469 1282.84 841.636 1234.18 837.839 1211.17C836.147 1200.91 836.445 1190.84 836.445 1190.84C838.985 1189.41 875.773 1203.57 887.058 1211.31C918.534 1227.69 931.765 1255.22 944.003 1283.24C948.593 1293.75 958.673 1312.74 958.673 1312.74C956.82 1276.69 964.5 1219.19 937.477 1195.56L951.911 1201.65C1010.72 1235.28 1095.46 1311.39 1111.88 1379.19C1119.69 1412.94 1131.23 1482.23 1131.21 1495.25C1131.2 1503.57 1132.84 1512.61 1129.25 1522.49C1123.54 1538.21 1109 1563.08 1080.03 1614.44C1043.17 1679.78 1033.03 1695.27 1031.63 1707.12C1030 1720.86 1031.44 1725.37 1052.45 1772.27C1064.87 1799.98 1075.03 1826.25 1075.03 1830.64C1075.03 1838.69 1046.57 1883.62 1021.48 1915.18C1004.6 1936.41 997.166 1953.69 999.738 1965.7C1001.55 1974.14 1017.75 2013.75 1025.19 2027.89C1025.19 2027.89 1072.86 2137.76 1102.1 2201.02C1106.67 2210.9 1113.26 2226.42 1118.14 2227C1124.66 2226.93 1129.67 2209.67 1134.03 2199.24C1149.71 2161.74 1189.05 2076.37 1212.03 2027.36C1219.1 2012.35 1220.99 2007.9 1218.8 2001.68C1214.58 1989.67 1206.64 1990.39 1189.2 2005.29C1170.44 2021.31 1130.17 2048.4 1113.31 2054.34C1095.52 2060.62 1087.52 2057.5 1072.05 2046.14C1057.68 2035.6 1041.56 2009.24 1029.28 1976.22C1024.46 1963.27 1024.46 1961.82 1029.19 1951.08C1034.95 1936.77 1043.13 1925.51 1051.64 1914.64C1057.54 1908.93 1070.46 1891.16 1079.56 1879.17C1087.5 1868.73 1101.09 1850.83 1102.82 1847.42C1108.12 1836.99 1105.57 1820.52 1093 1770.21C1079.42 1715.87 1081.82 1708.78 1084.09 1696.61C1100.3 1659.13 1126.26 1629.37 1149.87 1592.7L1186.34 1536.03C1200.98 1515.65 1202.48 1494.79 1191.21 1412.2C1171.12 1341.29 1217.9 1232.3 1271.47 1214.46C1276.38 1235.61 1260.17 1301.08 1270.89 1310.11C1301.39 1252.5 1309.1 1215.49 1373.83 1194.3C1393.09 1189.4 1409.72 1177.18 1426.32 1169.9C1347.8 1236.7 1418.2 1385.08 1409.18 1395.82C1390.65 1434.57 1360.75 1484.16 1327.14 1499.03C1310.69 1506.98 1296.67 1509.03 1279.13 1513.63L1278.49 1594.85C1278.14 1639.72 1279.94 1678.19 1280.69 1680.33C1282.08 1684.31 1290.44 1687.62 1294.91 1686.1L1331.09 1674.54C1347.99 1670.82 1355.93 1671.75 1370.58 1673.41C1377.65 1673.85 1377.72 1670.26 1380.86 1665.34L1711 938.27Z" fill="white"/>
</svg>
