<svg width="80" height="149" viewBox="0 0 80 149" fill="none" xmlns="http://www.w3.org/2000/svg">
<path d="M80 62.5513L51.4077 1.84552C51.4077 1.84552 51.0923 1.52741 50.7485 1.4994C50.7485 1.4994 50.5096 2.0375 50.4545 2.57185C50.1339 5.68227 50.5183 5.91337 49.5929 7.26855C49.0982 7.99313 48.2992 9.0891 48.2994 9.28229C48.3002 9.86991 48.6257 9.81188 49.1991 9.26496C49.4908 8.98664 50.0658 8.75841 50.3864 8.63727C50.9021 8.44238 51.2038 8.6227 51.5134 8.84656C51.7902 9.04664 51.8992 9.47328 52.0068 9.74441C52.1144 10.0155 53.8276 16.7321 55.9043 24.7003C59.253 37.5492 59.7137 38.4628 59.5945 39.5069C59.5945 39.5069 59.74 41.1588 59.4351 41.7733C58.9409 42.7693 57.0206 44.3628 57.0206 44.3628C54.6338 46.6463 54.6294 46.2744 54.8033 46.9265C54.9631 47.526 54.9515 47.4754 55.5589 47.4245C55.9258 47.3937 56.4932 47.3564 56.7132 47.1499C57.3328 46.5683 58.8526 45.7026 59.6743 45.8024C61.4501 46.018 61.3048 46.2833 63.283 53.9187C64.1458 57.2489 64.5372 59.2021 64.822 60.4045C65.1933 61.9728 64.9239 62.5239 63.8686 63.6111C62.3341 65.1921 59.7207 65.954 56.9158 65.5016C55.3452 65.2482 54.3409 64.4204 54.1642 63.8636C53.9806 63.2854 53.93 62.2959 54.2259 61.6023C54.7053 60.4788 55.7293 59.5076 56.8012 58.9953C57.4417 58.6892 58.0044 58.4735 57.9657 58.3361C57.83 57.8537 53.5089 59.2298 51.9106 60.5614C50.6906 61.6982 49.6603 62.8282 48.8584 64.2411L48.9371 63.0649C49.0127 61.9351 48.9715 61.9123 49.5749 60.9596C49.7372 60.7033 50.2337 60.3118 50.1785 60.229C50.0928 60.1008 49.4028 60.0701 48.8034 60.3603C46.8421 61.3775 46.5846 62.8902 45.4887 64.3392C45.434 64.3394 45.182 63.8055 44.9288 63.1527C44.233 61.3582 43.1114 59.8753 40.356 56.9603C37.7167 54.168 37.2042 53.2577 37.2063 51.6641C37.2073 50.8427 37.8685 49.372 38.6418 48.5165C39.6023 47.4538 40.3167 47.3288 42.3522 46.3484C47.1671 44.029 48.8575 42.5547 49.8163 40.0076C50.3552 38.576 50.3169 37.4699 49.9267 35.5321C49.2224 32.0335 45.9678 29.4136 41.4944 28.7444L40.5556 28.604C40.9501 27.7482 41.6443 27.1184 42.2925 26.5882C42.5868 26.3429 43.4239 25.853 44.1652 25.4801C47.1873 23.9598 47.2125 23.908 47.5422 22.3921C47.6354 21.9638 47.7603 21.7231 47.6127 21.713C47.444 21.7013 47.0596 21.9954 46.7601 22.4819C46.3288 23.1824 46.0918 23.2834 44.586 23.713C42.1494 24.4081 40.1983 24.7703 37.7003 24.9029C37.3374 24.9029 37.2073 24.798 37.2073 24.5054C37.2073 24.2867 36.7926 22.9779 36.2857 21.5969C35.1321 18.454 34.9967 17.4444 35.4963 16.1036C35.9306 14.9379 36.1637 14.8442 35.8392 14.854C35.3748 14.8681 33.9577 16.4022 33.7068 17.4572C33.5039 18.3108 33.514 19.0301 33.7639 21.5197L34.0676 24.545L32.8508 26.7097C31.6889 28.7766 31.6394 28.9198 31.7532 29.8808C31.8621 30.8 31.8021 31.0147 31.0621 32.3551C30.2747 33.7814 30.2549 33.8626 30.3611 35.2291C30.4964 36.9704 30.5724 37.1653 31.2785 37.5824C31.7188 37.8424 32.0055 38.0661 32.15 37.9968C32.2602 37.9439 32.2772 37.6687 32.2772 37.4133C32.2772 36.4408 33.0391 35.2493 34.6765 33.6609C35.7266 32.6422 36.7251 31.8769 37.4424 31.5408C38.0598 31.2515 38.6178 30.9292 38.6825 30.8245C41.6991 30.3101 45.9965 32.873 47.2917 35.3154C48.2269 37.2374 47.806 39.224 45.6604 41.1315C44.222 42.4103 43.064 42.9777 39.4422 44.1999C34.6387 45.7938 31.6697 48.9268 31.538 52.7058C31.4329 54.9476 31.4209 54.9009 33.7395 61.2833C34.0153 62.0425 34.2428 62.9214 34.2451 63.2364C34.2467 63.4434 34.1857 63.5646 34.1857 63.5646C34.1857 63.5646 33.9168 63.2959 33.4954 62.6449C33.0807 62.0045 32.4064 61.4192 32.0288 61.0887C31.28 60.4332 30.1432 59.7209 29.9438 59.9204C29.7595 60.1047 30.4881 60.8405 30.6996 61.1275C31.2817 61.9173 31.1745 62.8542 31.1615 63.6002C31.1557 63.9371 31.0978 64.1425 31.0978 64.1425C30.1518 62.8994 29.2954 61.2532 28.0292 60.19C26.6589 59.0971 23.677 58.2953 22.449 58.2883C21.6412 58.2837 22.1276 58.5875 23.3167 59.1557C25.2534 60.0916 26.4785 62.5681 25.8235 63.9985C25.4798 64.6171 24.699 65.0028 23.0384 65.2799C19.6356 65.8477 16.2524 64.2382 15.4462 61.8724C15.1742 61.0744 15.215 60.8521 16.8958 53.9701C17.847 50.0754 18.6895 46.6914 18.7681 46.4501C18.9757 45.8127 20.0379 45.6662 21.3814 46.0896C22.2406 46.3604 22.7601 46.7256 23.9452 47.8915C24.7626 48.6957 25.5445 49.4646 25.6375 49.4646C25.6375 49.4646 25.8069 48.8504 25.4678 47.3819C25.1747 46.1125 25.0792 46.305 22.714 44.0591C21.7837 43.1757 21.2677 42.686 20.9152 42.2932C20.3783 41.695 20.23 41.5499 20.2361 40.9625C20.2394 40.6413 20.3036 39.6868 20.3719 39.3735C22.4906 29.6544 24.7206 19.5935 27.9817 9.20813C28.1832 8.87402 28.6951 8.57046 28.9883 8.6106C29.821 8.72459 31.2677 11.2593 31.5704 11.2076C31.7589 9.4732 30.1466 7.20715 29.4178 6.11109C29.4178 6.11109 29.6894 0.380417 28.8237 0L0 62.9327C8.69553 83.0915 20.7357 104.958 28.5275 123.783C28.6322 124.058 28.8532 124.284 29.0185 124.284C29.2846 124.284 29.3192 122.936 29.3192 112.583V100.883L28.1266 100.552C26.3767 100.065 25.6352 99.6691 23.2161 96.8473C21.0966 94.3751 21.0544 94.0957 20.9339 92.9878C20.8502 92.2175 20.9496 90.982 21.2398 89.1848C21.8312 85.5226 22.0424 82.2788 21.7892 80.7445C21.6764 80.0607 21.6964 79.3891 21.6964 79.3891C21.8656 79.2938 24.3182 80.2381 25.0705 80.7543C27.169 81.8461 28.051 83.6811 28.8669 85.5494C29.1729 86.2501 29.8449 87.516 29.8449 87.516C29.7214 85.1125 30.2333 81.2796 28.4318 79.7037L29.3941 80.1102C33.3149 82.3519 38.9641 87.4259 40.0588 91.946C40.5793 94.1963 41.3486 98.8154 41.3474 99.6835C41.3466 100.238 41.4559 100.841 41.2167 101.5C40.8363 102.548 39.8668 104.205 37.9354 107.629C35.4783 111.985 34.802 113.018 34.7084 113.808C34.5999 114.724 34.696 115.024 36.0968 118.151C36.9245 119.999 37.6017 121.75 37.6017 122.043C37.6017 122.579 35.7045 125.575 34.0322 127.679C32.9069 129.094 32.4111 130.246 32.5826 131.047C32.7031 131.61 33.7836 134.25 34.2793 135.193C34.2793 135.193 37.4573 142.517 39.4069 146.735C39.7113 147.393 40.1508 148.428 40.476 148.467C40.9108 148.462 41.2446 147.311 41.5353 146.616C42.5805 144.116 45.2031 138.425 46.7352 135.157C47.2068 134.157 47.3327 133.86 47.1869 133.445C46.9053 132.645 46.3759 132.692 45.2131 133.686C43.9629 134.754 41.2777 136.56 40.1539 136.956C38.9678 137.374 38.4349 137.167 37.403 136.409C36.4452 135.706 35.3707 133.949 34.552 131.748C34.2309 130.884 34.2306 130.788 34.5462 130.072C34.9298 129.118 35.4756 128.367 36.0424 127.643C36.4359 127.262 37.2972 126.077 37.904 125.278C38.4331 124.582 39.3391 123.389 39.4548 123.161C39.8082 122.466 39.6379 121.368 38.7998 118.014C37.8943 114.391 38.0546 113.918 38.2057 113.107C39.2866 110.609 41.0174 108.624 42.5911 106.18L45.0227 102.402C45.9987 101.043 46.0989 99.6526 45.347 94.1463C44.0077 89.4192 47.127 82.1531 50.6977 80.9638C51.0255 82.3741 49.9447 86.7386 50.659 87.3404C52.6928 83.5001 53.2068 81.0327 57.522 79.6201C58.8063 79.2932 59.9148 78.4784 61.021 77.9934C55.7864 82.447 60.4798 92.3387 59.8788 93.0549C58.6431 95.6382 56.65 98.9442 54.4095 99.9353C53.313 100.465 52.3783 100.602 51.2086 100.909L51.166 106.323C51.1425 109.315 51.2629 111.879 51.3128 112.022C51.4056 112.288 51.9629 112.508 52.2604 112.407L54.6729 111.636C55.7997 111.388 56.3288 111.45 57.3053 111.561C57.7768 111.59 57.7811 111.351 57.9905 111.022L80 62.5513Z" fill="white"/>
</svg>
