<svg width="235" height="235" viewBox="0 0 235 235" fill="none" xmlns="http://www.w3.org/2000/svg">
<path d="M117.237 0C181.986 0 234.475 52.4889 234.475 117.237C234.475 181.986 181.986 234.475 117.237 234.475C52.4889 234.475 0 181.986 0 117.237C0 52.4889 52.4889 0 117.237 0ZM117.237 25C66.2961 25 25 66.2961 25 117.237C25 168.179 66.2961 209.475 117.237 209.475C168.179 209.475 209.475 168.179 209.475 117.237C209.475 66.2961 168.179 25 117.237 25ZM117.237 57.6426C150.151 57.6426 176.832 84.324 176.832 117.237C176.832 150.151 150.151 176.832 117.237 176.832C84.324 176.832 57.6426 150.151 57.6426 117.237C57.6426 84.324 84.324 57.6426 117.237 57.6426Z" fill="white"/>
</svg>
