<svg xmlns:ffdec="https://www.free-decompiler.com/flash" xmlns:xlink="http://www.w3.org/1999/xlink" xmlns="http://www.w3.org/2000/svg" ffdec:objectType="shape" width="255.9557" height="255.9557" viewBox="0 0 255.9557 255.9557">
<g transform="translate(18.68, 0.0057)">
  <g transform="matrix(1.0, 0.0, 0.0, 1.0, 109.0, 128.0)">
    <path d="M34.55 -113.5 L34.4 -113.5 32.6 -113.35 32.5 -113.3 Q31.15 -111.9 30.85 -109.5 30.7 -106.25 31.8 -104.2 32.85 -102.15 34.35 -100.5 37.3 -97.3 43.2 -97.0 L43.2 -97.1 Q48.15 -99.25 50.4 -104.05 L50.4 -104.2 Q50.5 -105.4 50.2 -106.15 48.9 -106.05 48.2 -105.4 46.25 -103.65 42.85 -103.25 L42.85 -103.35 Q41.75 -103.55 41.4 -104.55 L41.45 -104.65 Q43.3 -105.6 44.6 -107.1 44.55 -108.15 43.85 -108.55 L34.55 -113.5 M38.4 -107.25 L37.05 -103.6 36.95 -103.6 Q34.8 -105.2 34.7 -108.85 L34.7 -109.0 38.25 -107.3 38.4 -107.25 M24.6 -127.75 Q37.05 -126.0 45.25 -119.85 53.4 -113.75 57.85 -103.9 60.7 -97.6 66.3 -94.0 68.1 -92.85 69.4 -91.1 69.9 -81.25 64.6 -77.2 L64.45 -77.15 Q58.2 -79.9 54.2 -84.8 51.2 -88.6 44.75 -88.9 41.65 -89.0 40.3 -87.25 40.1 -83.15 42.3 -80.65 L43.75 -78.85 Q47.2 -74.1 53.8 -72.5 55.95 -72.0 57.55 -71.0 L57.75 -70.75 Q55.45 -65.85 48.0 -66.05 40.05 -66.3 37.05 -71.45 L35.6 -73.55 Q29.35 -81.7 20.6 -87.3 17.35 -89.35 12.6 -89.65 5.3 -90.15 0.75 -87.45 -8.25 -82.15 -15.5 -75.05 -22.75 -68.0 -29.2 -60.1 -30.2 -58.9 -31.35 -57.8 -36.7 -59.1 -44.35 -58.85 L-57.75 -58.35 -57.75 -58.6 Q-52.45 -67.6 -46.1 -75.5 -39.7 -83.5 -32.85 -91.0 -26.0 -98.45 -18.4 -105.15 -10.8 -111.85 -2.55 -117.95 5.1 -123.65 15.05 -127.05 19.2 -128.5 24.6 -127.75 M55.2 -79.45 Q64.2 -73.9 78.35 -74.55 82.4 -74.75 85.8 -75.75 96.8 -79.15 103.8 -86.5 L106.2 -88.55 Q105.6 -85.45 103.95 -83.45 103.35 -82.7 103.35 -81.35 106.4 -81.6 108.0 -83.4 108.55 -84.05 109.6 -84.2 107.4 -79.2 103.2 -76.15 99.0 -73.15 93.75 -71.2 85.85 -68.2 75.05 -68.95 61.75 -69.9 53.1 -75.65 50.3 -77.55 47.9 -79.95 45.8 -82.1 45.1 -85.65 50.35 -83.7 54.1 -80.3 L55.2 -79.45 M7.45 6.15 Q5.55 18.4 -0.15 27.0 -5.9 35.6 -15.1 40.8 -21.9 44.65 -30.9 46.4 -37.95 47.8 -45.9 46.8 -58.55 45.15 -66.7 38.95 -74.8 32.75 -79.3 22.8 -82.0 16.7 -82.35 8.1 -82.65 0.7 -80.9 -4.95 -77.55 -15.75 -69.6 -22.05 L-65.3 -25.05 Q-59.15 -28.75 -50.85 -30.15 -49.35 -30.4 -48.15 -30.15 -54.55 -22.2 -58.5 -11.85 -61.4 -4.4 -60.35 5.85 L-60.0 8.1 Q-57.45 19.75 -46.9 23.5 -40.65 25.75 -32.7 24.45 -29.8 24.0 -27.4 22.85 -17.65 18.2 -13.9 7.55 -12.55 3.65 -12.35 -1.35 -11.95 -12.3 -16.25 -18.6 -19.2 -22.95 -23.25 -26.1 -31.35 -32.35 -44.8 -32.9 -53.9 -33.3 -60.4 -30.9 -70.85 -26.95 -77.3 -19.05 -83.7 -11.2 -86.6 0.15 -88.55 7.85 -87.3 16.4 -85.45 28.85 -78.7 36.4 -71.95 44.0 -63.5 49.9 L-57.35 54.45 Q-49.25 60.65 -42.1 67.8 -38.55 71.45 -36.15 76.35 -33.8 81.15 -32.45 87.1 -31.05 93.45 -32.8 100.05 -33.85 104.1 -36.05 107.3 -41.85 115.8 -49.35 122.6 L-55.35 127.95 Q-54.15 122.55 -52.25 117.15 -50.35 111.7 -49.05 105.75 -47.6 99.3 -49.15 92.8 -49.8 90.0 -51.15 87.75 -56.55 78.85 -65.9 73.85 -75.25 68.9 -83.4 62.65 -86.4 60.35 -89.0 57.6 -96.0 50.25 -101.25 41.15 -106.45 32.1 -108.3 19.75 -109.2 13.35 -108.95 5.9 -107.5 -6.95 -103.05 -16.85 -98.6 -26.7 -91.9 -34.35 -85.25 -42.0 -76.15 -47.2 -67.0 -52.4 -54.55 -54.2 -46.45 -55.35 -37.5 -54.5 -24.6 -53.3 -15.6 -48.05 -6.55 -42.75 -0.65 -34.25 5.2 -25.8 7.35 -13.65 9.05 -3.9 7.45 6.15" fill="#cccccc" fill-opacity="0.9882353" fill-rule="evenodd" stroke="none"/>
  </g>
</g></svg>