<svg xmlns:ffdec="https://www.free-decompiler.com/flash" xmlns:xlink="http://www.w3.org/1999/xlink" xmlns="http://www.w3.org/2000/svg" ffdec:objectType="shape" width="256" height="256" viewBox="0 0 256 256">
<g transform="translate(34.6, 0)">
  <g transform="matrix(1.0, 0.0, 0.0, 1.0, 93.0, 128.0)">
    <path d="M3.55 -128.0 Q17.0 -127.15 25.9 -121.85 34.9 -116.5 41.1 -108.45 47.3 -100.35 49.85 -88.75 50.7 -84.95 50.9 -80.65 L50.9 -77.0 50.9 -76.8 50.75 -73.8 Q49.2 -61.1 43.6 -52.45 38.0 -43.75 29.55 -37.85 21.2 -32.0 9.0 -29.95 L9.0 -30.1 Q8.5 -35.05 7.4 -39.35 19.55 -41.5 27.2 -48.05 34.9 -54.65 39.0 -64.85 40.95 -69.65 41.35 -76.0 L41.45 -76.05 Q41.65 -78.6 41.35 -80.8 40.8 -89.05 38.0 -95.0 33.45 -104.7 25.4 -110.95 17.35 -117.1 4.35 -118.4 L4.35 -118.5 -0.25 -118.6 -0.25 -118.4 Q-8.3 -117.85 -14.25 -115.15 -24.0 -110.65 -30.25 -102.65 -36.5 -94.65 -38.0 -81.9 L-38.0 -80.65 -38.0 -80.5 -38.2 -80.5 -38.1 -77.0 -38.0 -77.0 Q-37.9 -72.7 -36.95 -69.2 -34.35 -59.45 -28.65 -52.75 -22.05 -45.05 -11.55 -41.25 L-11.55 -41.1 Q-9.05 -36.1 -8.2 -30.25 -8.25 -30.55 -8.65 -30.65 -20.15 -33.25 -28.2 -39.4 -36.35 -45.6 -41.65 -54.65 -46.85 -63.6 -47.6 -77.15 L-47.6 -77.3 -47.6 -80.3 -47.6 -80.5 -47.6 -81.45 Q-46.4 -94.5 -41.1 -103.45 -35.75 -112.4 -27.6 -118.55 -19.45 -124.6 -7.7 -127.05 L-0.25 -128.0 3.4 -128.0 3.55 -128.0 M5.5 -25.65 L-3.9 -25.9 -3.9 -25.95 Q-4.95 -39.2 -10.85 -47.55 -16.8 -55.9 -26.25 -60.65 L-30.35 -62.45 Q-32.9 -67.15 -34.0 -73.15 L-34.05 -73.3 Q-22.35 -70.75 -14.3 -64.55 -6.2 -58.35 -0.9 -49.4 4.45 -40.45 5.45 -27.25 L5.5 -25.65 M2.8 -8.6 Q-1.1 1.8 -8.05 9.1 -15.0 16.45 -25.05 20.8 -31.8 23.75 -41.2 24.25 L-41.35 24.25 -46.45 24.25 -53.8 23.25 Q-65.45 20.7 -73.5 14.5 -81.55 8.25 -86.85 -0.75 -92.15 -9.7 -93.0 -23.1 L-93.0 -23.25 -93.0 -26.75 -93.0 -26.9 -93.0 -29.45 Q-91.2 -41.95 -85.7 -50.75 -80.25 -59.5 -71.95 -65.45 -63.6 -71.4 -51.55 -73.6 L-51.25 -73.65 Q-50.75 -68.75 -49.5 -64.7 L-49.5 -64.55 Q-61.4 -62.15 -69.2 -55.75 -77.05 -49.25 -81.1 -38.95 -83.1 -33.85 -83.45 -26.9 L-83.6 -26.9 -83.55 -22.3 -83.45 -22.3 Q-82.2 -9.3 -76.0 -1.25 -69.8 6.85 -60.05 11.4 -51.55 15.4 -39.15 14.45 -36.05 14.2 -33.25 13.35 -22.3 10.1 -15.35 2.8 -10.85 -1.9 -7.75 -7.95 L2.6 -8.6 2.8 -8.6 M1.2 -21.8 Q14.6 -21.0 23.55 -15.7 32.55 -10.35 38.75 -2.3 44.95 5.75 47.55 17.4 48.4 21.15 48.5 25.7 43.65 25.6 39.1 25.75 L39.1 25.7 Q37.9 12.65 31.9 4.4 25.85 -3.85 16.3 -8.6 10.3 -11.6 2.0 -12.25 L2.0 -12.35 -2.65 -12.4 -2.65 -12.25 Q-15.65 -11.15 -23.75 -5.15 -31.95 0.95 -36.75 10.4 L-44.7 11.25 Q-46.4 11.25 -47.25 10.7 -43.1 0.6 -36.15 -6.7 -29.15 -14.0 -19.2 -18.25 -12.05 -21.25 -2.5 -21.8 L1.0 -21.8 1.2 -21.8 M35.75 43.85 L35.8 43.75 Q40.75 42.6 46.3 42.9 43.25 50.9 38.55 57.15 32.45 65.3 23.4 70.6 14.5 75.9 1.0 76.7 L0.85 76.7 -2.3 76.7 Q-7.55 76.5 -11.9 75.45 -23.3 72.6 -31.2 66.25 -39.15 59.9 -44.3 50.75 -49.45 41.65 -50.0 27.9 L-45.65 28.05 -45.5 28.05 -41.85 28.15 -41.85 28.05 Q-39.8 27.85 -40.2 30.35 L-40.2 32.05 Q-38.4 44.45 -32.0 52.3 -25.55 60.15 -15.5 64.35 -9.95 66.7 -2.5 67.15 -0.55 67.4 1.8 67.2 L1.8 67.15 2.0 67.1 Q14.95 65.85 22.95 59.6 30.95 53.3 35.75 43.85 M93.8 80.7 Q93.75 85.15 92.9 88.85 90.2 100.45 84.0 108.5 77.75 116.55 68.8 121.85 59.85 127.15 46.45 128.0 L46.3 128.0 42.6 128.0 Q38.25 127.75 34.35 126.9 22.85 124.25 14.8 118.1 6.7 111.9 1.35 102.9 -3.95 94.0 -4.7 80.5 0.15 80.6 4.7 80.35 L4.85 80.35 Q5.8 93.7 11.85 101.85 18.0 110.05 27.55 114.85 33.7 117.95 42.6 118.45 L47.25 118.55 47.25 118.45 Q60.2 117.15 68.25 110.95 76.3 104.75 80.95 95.05 83.65 89.35 84.2 81.5 L84.3 81.45 Q84.5 78.95 84.2 76.85 L83.95 73.65 Q82.05 61.3 75.5 53.55 72.2 49.65 68.15 46.5 60.15 40.3 47.1 39.05 L47.1 39.0 42.0 38.9 42.0 39.05 Q29.0 40.35 20.95 46.5 12.85 52.7 8.2 62.35 4.65 63.3 0.4 63.55 -1.35 63.7 -2.3 63.15 1.5 52.7 8.3 45.25 15.15 37.8 25.05 33.4 32.55 30.1 42.8 29.5 L45.95 29.5 46.15 29.5 Q59.7 30.2 68.6 35.5 73.15 38.2 77.0 41.55 84.6 48.2 89.3 57.8 93.1 65.7 93.8 76.85 L93.8 80.5 93.8 80.7" fill="#cccccc" fill-opacity="0.99215686" fill-rule="evenodd" stroke="none"/>
  </g>
</g></svg>