<svg xmlns:ffdec="https://www.free-decompiler.com/flash" xmlns:xlink="http://www.w3.org/1999/xlink" xmlns="http://www.w3.org/2000/svg" ffdec:objectType="shape" width="256.001" height="256.001" viewBox="0 0 256.001 256.001">
<g transform="translate(46.4005, 0)">
  <g transform="matrix(1.0, 0.0, 0.0, 1.0, 82.0, 128.0)">
    <path d="M35.25 -115.2 Q35.05 -109.9 37.7 -107.2 L44.8 -99.9 Q48.3 -96.2 50.05 -90.7 51.45 -86.2 50.15 -81.3 48.7 -75.7 46.25 -71.05 L45.0 -68.55 Q40.3 -58.9 36.65 -48.25 34.3 -41.4 33.5 -33.1 L33.35 -33.1 33.45 -28.3 33.5 -28.3 Q34.0 -16.15 43.85 -13.5 L46.15 -13.6 Q51.05 -15.85 52.5 -21.8 L53.8 -29.1 Q54.3 -32.95 55.2 -36.4 L55.25 -36.75 Q58.15 -36.05 59.45 -33.65 61.95 -29.05 63.9 -23.8 66.2 -17.4 64.85 -9.75 64.1 -5.3 61.35 -2.65 55.0 3.45 46.6 7.5 39.1 11.05 35.05 17.95 34.0 19.65 33.65 21.95 L33.5 21.95 33.6 29.5 33.65 29.5 33.7 31.9 Q34.05 45.8 35.2 59.1 L35.55 60.75 Q37.05 65.05 35.9 69.95 34.25 64.15 31.5 59.5 26.15 50.55 18.65 43.75 L17.75 29.0 15.55 2.3 Q14.5 -10.95 14.65 -25.4 L16.3 -38.35 Q17.1 -44.55 19.0 -49.75 22.85 -60.35 28.8 -68.65 L35.6 -78.8 Q36.7 -80.5 36.85 -83.0 37.25 -90.05 35.2 -95.5 32.3 -103.25 31.65 -113.25 31.4 -117.55 33.65 -119.35 35.4 -118.35 35.25 -115.2 M6.0 -118.2 Q11.6 -118.45 13.2 -114.6 14.4 -111.7 13.1 -108.75 L10.75 -104.05 Q9.05 -101.05 9.85 -96.75 11.15 -89.65 16.8 -87.1 L18.0 -86.85 19.1 -86.85 Q20.75 -87.7 22.6 -88.35 L22.65 -88.45 25.15 -88.25 25.2 -88.15 Q24.85 -85.75 23.55 -84.35 21.85 -82.45 20.55 -80.05 15.55 -70.8 12.25 -59.8 8.95 -48.8 8.0 -35.5 7.55 -28.5 7.95 -21.4 L9.45 5.8 10.9 32.85 11.1 39.55 Q2.8 35.4 -9.7 35.4 L-9.85 35.4 Q-11.3 22.55 -11.95 8.85 L-13.2 -18.55 -14.4 -45.75 Q-14.5 -48.15 -15.2 -49.8 -16.15 -52.1 -17.45 -54.05 -18.5 -55.6 -19.25 -57.45 -21.4 -62.8 -21.35 -70.4 -19.25 -80.6 -12.65 -86.25 L-11.6 -86.55 Q-11.05 -84.1 -11.2 -81.1 L-11.0 -79.2 Q-9.8 -73.75 -5.0 -71.7 L-3.15 -71.5 Q2.05 -73.55 2.0 -80.6 1.95 -83.55 0.7 -85.45 -2.15 -89.75 -2.5 -96.3 -2.6 -97.45 -2.2 -98.5 0.2 -104.9 -3.7 -109.3 -5.3 -111.1 -6.55 -113.15 -8.6 -116.65 -7.8 -121.6 -7.1 -126.0 -4.1 -128.0 -2.35 -126.1 -2.05 -123.0 -1.7 -119.55 0.95 -118.75 3.15 -118.1 6.0 -118.2 M75.05 14.9 Q68.9 23.0 66.55 34.95 64.2 47.15 65.1 61.8 L65.35 65.8 65.35 71.1 65.35 71.25 65.3 74.45 Q64.05 87.65 59.05 97.0 54.1 106.35 46.75 113.3 40.35 119.4 29.95 121.35 24.25 122.45 21.2 119.9 24.25 115.75 27.7 112.05 31.2 108.3 34.05 104.0 39.75 95.35 43.2 84.5 46.65 73.6 47.65 60.35 48.45 49.45 50.6 39.8 52.5 31.2 56.7 24.7 62.35 16.0 69.85 9.2 73.9 5.55 79.35 3.2 L81.2 2.9 Q80.25 9.2 76.75 12.85 L75.05 14.9 M0.4 42.15 Q9.15 44.1 15.05 48.9 22.9 55.4 27.35 65.2 30.15 71.4 30.6 79.75 31.35 94.05 26.35 103.7 21.5 113.1 13.35 119.25 5.15 125.4 -7.0 127.3 -15.5 128.65 -23.75 127.4 -36.1 125.45 -44.25 119.3 -52.45 113.15 -57.6 104.0 -62.8 94.85 -63.75 81.5 L-63.75 81.35 -63.75 74.95 -63.75 74.75 -63.75 72.05 Q-63.15 67.75 -63.15 62.75 L-63.15 62.6 -63.05 62.6 Q-62.85 58.9 -63.15 55.55 L-63.15 55.4 Q-63.85 44.55 -64.1 33.15 L-64.1 33.0 Q-63.95 30.5 -64.25 28.35 L-64.25 28.2 -64.25 26.6 -64.25 26.45 Q-64.15 23.1 -64.4 20.2 L-64.4 20.05 -64.4 14.6 -64.4 14.45 Q-64.3 11.05 -64.55 8.05 L-64.55 7.9 -64.55 4.35 -64.55 4.2 Q-64.45 0.8 -64.75 -2.2 L-64.75 -2.35 Q-64.65 -16.75 -65.65 -30.2 -66.15 -36.8 -68.25 -42.0 -72.35 -52.1 -78.75 -60.05 -81.95 -64.0 -82.0 -71.2 -80.1 -77.35 -75.15 -80.55 -73.75 -81.45 -72.4 -82.5 -68.85 -85.2 -68.75 -91.2 -68.7 -92.3 -68.25 -92.8 -67.05 -92.8 -66.6 -92.0 L-66.5 -92.0 Q-64.55 -88.1 -65.6 -82.9 -66.6 -77.7 -67.85 -72.75 -68.6 -69.6 -68.4 -65.6 -64.8 -60.2 -58.7 -57.3 -53.9 -55.0 -50.15 -51.5 -46.45 -48.0 -45.35 -41.9 -44.05 -34.75 -43.6 -26.55 L-42.1 0.5 -40.55 27.7 Q-39.9 38.35 -39.6 49.5 -44.8 58.6 -46.9 70.65 L-47.45 74.95 -47.6 74.95 -47.55 80.4 -47.45 80.4 Q-46.25 93.5 -39.15 100.75 L-35.5 104.25 Q-27.95 111.05 -14.8 112.0 L-8.3 111.4 Q2.6 108.15 9.15 100.35 L12.2 96.15 Q16.3 89.35 15.6 78.8 15.45 76.35 14.7 74.15 13.1 69.5 10.3 65.95 10.5 68.65 11.45 71.3 12.4 74.0 12.55 77.35 L12.55 82.3 12.55 82.45 Q12.25 86.6 11.1 89.7 7.15 100.2 -2.7 104.7 -7.6 106.95 -14.65 106.9 -21.65 106.9 -26.85 104.75 -33.1 102.2 -37.15 97.25 -43.6 89.4 -43.15 74.6 -42.05 61.4 -35.45 53.65 -33.0 50.75 -29.95 48.4 -23.8 43.65 -14.85 41.5 L-11.95 41.35 -7.3 41.35 -7.15 41.35 0.4 42.15 M-34.45 -112.65 Q-27.95 -104.8 -27.75 -90.85 -27.55 -81.0 -29.1 -72.65 -30.55 -64.75 -29.5 -56.0 -29.05 -52.25 -26.65 -50.2 -24.6 -48.5 -21.7 -47.6 L-20.9 -47.35 Q-20.55 -46.8 -20.35 -46.1 L-20.25 -46.05 Q-19.6 -32.35 -18.35 -19.45 -17.1 -6.25 -16.0 7.2 -14.95 20.3 -15.1 34.6 L-15.3 35.9 Q-25.55 37.95 -32.75 43.05 L-32.9 43.1 Q-34.15 37.15 -34.65 30.45 L-36.35 3.4 -37.75 -23.8 Q-38.35 -37.45 -39.45 -50.4 -39.8 -53.95 -40.6 -56.75 -42.15 -62.35 -47.15 -64.6 -53.8 -67.65 -54.0 -77.1 -51.75 -85.55 -45.05 -89.7 -40.65 -92.4 -38.0 -96.85 -37.7 -97.4 -37.65 -98.2 -37.6 -105.1 -39.2 -111.05 -39.9 -113.6 -38.8 -115.2 -36.15 -114.8 -34.45 -112.65" fill="#cccccc" fill-opacity="0.99607843" fill-rule="evenodd" stroke="none"/>
  </g>
</g></svg>