<svg xmlns:ffdec="https://www.free-decompiler.com/flash" xmlns:xlink="http://www.w3.org/1999/xlink" xmlns="http://www.w3.org/2000/svg" ffdec:objectType="shape" width="256" height="256" viewBox="0 0 256 256">
<g transform="translate(64.35, 0)">
  <g transform="matrix(1.0, 0.0, 0.0, 1.0, 63.0, 128.0)">
    <path d="M1.75 -68.3 L-1.3 -74.6 -4.3 -81.0 -7.45 -87.4 -7.55 -87.65 -10.4 -94.15 -11.15 -95.85 -14.35 -102.1 Q-15.05 -103.4 -16.2 -104.25 L-16.45 -104.3 Q-17.25 -103.65 -17.4 -102.25 -17.55 -101.0 -18.85 -100.8 -19.8 -101.05 -20.0 -102.1 L-20.45 -104.0 -22.1 -111.85 -23.4 -120.0 -24.45 -128.0 -19.9 -123.1 -15.45 -118.15 -10.95 -113.2 Q-8.7 -110.7 -6.75 -107.9 L-6.5 -107.45 -6.2 -107.05 Q-5.6 -106.4 -6.2 -105.9 -6.5 -105.25 -7.65 -105.4 L-7.8 -105.45 Q-9.1 -106.25 -10.7 -106.7 L-10.85 -106.7 Q-11.25 -105.7 -10.85 -104.65 L-9.4 -101.3 -6.4 -94.8 -6.05 -93.9 -3.15 -87.45 -0.1 -81.05 3.1 -74.7 6.25 -68.35 6.6 -67.55 9.7 -61.25 12.9 -54.9 16.0 -48.65 19.15 -42.25 22.25 -35.9 22.6 -35.05 25.6 -28.65 28.6 -22.15 31.55 -15.6 32.75 -12.15 Q33.85 -8.45 36.4 -6.3 L39.25 -4.4 Q41.75 -3.1 43.75 -1.3 45.0 -0.2 45.75 1.45 L48.6 8.15 51.35 14.75 54.1 21.55 54.6 22.9 55.45 25.6 55.5 25.8 55.55 26.25 53.7 26.05 52.4 25.2 48.65 22.9 Q44.65 22.55 43.3 24.95 L43.2 24.95 Q42.75 26.7 42.6 28.95 L42.55 29.45 Q42.35 31.45 41.15 32.5 39.6 30.5 38.45 28.05 L36.55 24.05 33.65 17.5 32.35 14.2 29.7 7.35 29.0 5.75 Q28.95 4.55 29.25 3.65 L29.8 1.65 30.1 -0.2 30.95 -4.2 31.0 -5.45 30.5 -7.3 27.85 -13.95 24.9 -20.5 21.8 -26.95 20.3 -30.2 17.25 -36.6 14.15 -42.95 11.1 -49.3 7.95 -55.65 4.85 -61.9 1.75 -68.3 M6.95 -0.25 L10.15 6.0 10.85 7.4 14.1 13.6 17.25 19.85 20.45 26.15 23.6 32.35 26.75 38.65 30.0 44.9 30.7 46.25 33.9 52.5 37.05 58.8 40.2 65.0 40.95 66.45 44.15 72.65 47.25 78.95 50.45 85.2 53.7 91.5 56.85 97.75 59.95 104.05 63.2 110.35 Q64.0 111.9 64.25 114.1 L64.3 116.35 Q64.2 118.6 63.55 120.35 62.3 123.8 60.1 126.3 L58.4 127.6 57.3 128.0 Q57.15 127.75 57.4 127.05 58.55 123.55 59.3 119.65 59.7 117.6 59.6 115.2 L59.35 114.25 Q58.05 110.9 55.55 108.65 53.0 106.45 50.1 104.65 47.2 102.85 44.1 101.25 L37.75 98.15 34.55 96.55 34.3 96.4 27.75 93.5 21.25 90.65 14.9 87.55 8.85 84.15 Q5.9 82.4 3.3 80.25 L-1.8 75.9 -3.1 74.8 -7.85 70.15 -9.0 68.85 Q-11.15 66.3 -12.9 63.3 L-14.6 60.3 -17.95 54.1 -21.15 47.9 -24.35 41.65 -27.55 35.4 -30.7 29.15 -33.85 22.85 -37.05 16.6 -40.25 10.4 -43.45 4.15 -46.75 -2.0 -50.2 -8.0 -53.55 -14.2 -53.95 -15.0 -56.65 -21.65 Q-57.9 -25.2 -58.65 -29.1 -59.45 -33.1 -59.55 -37.75 -59.65 -41.95 -59.3 -45.6 L-59.05 -47.65 -58.5 -51.85 Q-58.3 -53.05 -58.25 -54.4 L-57.85 -56.35 -57.7 -56.95 -56.9 -60.95 -55.1 -68.5 -53.1 -76.1 -52.25 -80.0 -51.5 -83.85 -51.25 -84.95 Q-50.5 -89.0 -50.45 -93.75 -50.35 -98.65 -51.45 -102.25 -52.5 -105.95 -55.4 -107.75 L-57.6 -109.05 -60.55 -110.8 Q-61.95 -111.65 -63.0 -112.8 -61.55 -113.75 -59.0 -113.55 -54.65 -113.2 -51.95 -111.2 -49.25 -109.2 -47.45 -106.3 L-44.05 -100.2 -40.85 -93.95 -37.65 -87.7 -34.45 -81.5 -31.25 -75.25 -28.05 -69.0 -24.85 -62.75 -21.7 -56.5 -18.5 -50.25 -15.3 -44.0 -12.15 -37.75 -9.0 -31.5 -5.8 -25.25 -2.6 -19.0 0.6 -12.75 3.75 -6.5 6.95 -0.25 M-35.85 -77.1 L-35.95 -77.3 -39.15 -83.55 -42.35 -89.75 Q-43.1 -91.4 -44.45 -92.5 L-44.75 -91.85 -45.9 -85.1 -46.65 -81.1 -47.5 -77.1 -49.0 -69.25 -50.35 -61.1 -50.45 -60.0 Q-50.5 -57.6 -51.0 -55.7 L-51.0 -52.8 -51.0 -52.65 -51.2 -52.65 -51.1 -45.75 -51.0 -45.75 Q-51.0 -42.8 -50.6 -40.15 L-49.95 -36.15 -49.5 -34.2 Q-48.45 -30.45 -47.0 -27.3 L-43.85 -20.95 -40.65 -14.6 -37.6 -8.3 -34.45 -2.05 -31.25 4.2 -28.1 10.45 -24.9 16.7 -21.65 22.95 -18.4 29.15 -15.15 35.35 -11.9 41.55 -8.7 47.75 -5.3 53.8 -1.7 59.65 2.0 65.35 6.0 70.8 Q8.05 73.5 10.4 75.85 L12.9 78.15 18.3 82.2 24.1 85.8 30.2 89.25 33.4 90.85 39.75 93.85 46.1 96.95 Q49.25 98.55 52.65 99.95 L53.05 100.15 54.25 100.35 54.0 99.9 51.0 93.5 47.9 87.2 44.75 80.85 41.6 74.55 38.5 68.3 35.3 62.05 32.1 55.75 28.85 49.5 27.25 46.3 24.15 40.0 22.2 36.1 19.0 29.8 17.4 26.65 14.15 20.4 10.95 14.15 7.8 7.9 4.6 1.65 1.45 -4.65 -1.7 -10.9 -4.85 -17.15 -8.05 -23.4 -11.25 -29.65 -14.45 -35.85 -17.65 -42.1 -20.85 -48.35 -24.05 -54.6 -27.3 -60.8 -30.5 -67.05 -32.5 -70.95 -35.85 -77.1" fill="#cccccc" fill-opacity="0.99215686" fill-rule="evenodd" stroke="none"/>
  </g>
</g></svg>