<svg xmlns:ffdec="https://www.free-decompiler.com/flash" xmlns:xlink="http://www.w3.org/1999/xlink" xmlns="http://www.w3.org/2000/svg" ffdec:objectType="shape" width="256" height="256" viewBox="0 0 256 256">
<g transform="translate(51.0769, 0)">
  <g transform="matrix(1.0, 0.0, 0.0, 1.0, 77.0, 128.0)">
    <path d="M-33.95 -116.1 Q-31.8 -106.1 -31.55 -94.4 L-31.45 -91.0 -31.4 -91.0 -31.4 -79.0 -31.4 -78.85 -31.55 -78.85 -31.55 -75.35 -31.55 -75.2 -31.55 -73.75 -31.55 -73.6 -31.7 -73.6 -31.7 -69.4 -31.7 -69.25 -31.7 -67.8 -31.7 -67.65 -31.85 -67.65 -31.85 -63.8 -31.85 -63.65 -31.85 -60.8 -31.85 -60.6 -32.0 -60.6 -32.0 -57.6 -32.0 -57.4 -32.0 -55.5 -32.0 -55.35 -32.2 -55.35 -32.2 -40.95 -32.2 -40.8 -32.2 -30.05 -32.2 -29.9 -32.2 -22.85 -32.2 -22.7 -32.35 -22.7 -32.35 -17.1 -32.35 -16.95 -32.35 -11.8 -32.35 -11.65 -32.35 -6.85 -32.35 -6.7 -32.35 -2.25 -32.35 -2.05 -32.5 -2.05 -32.5 2.4 -32.5 2.55 -32.5 7.05 -32.5 7.2 -32.5 11.55 -32.5 11.7 -32.5 16.15 -32.5 16.35 -32.65 16.35 -32.65 20.95 -32.65 21.15 -32.65 26.4 -32.65 26.55 -32.65 32.15 -32.65 32.35 -32.65 32.5 Q-33.05 40.4 -32.0 46.9 -27.5 46.4 -24.35 44.5 -15.35 39.2 -9.8 30.4 L-9.65 30.45 Q-5.95 31.7 -4.05 34.75 -4.2 36.8 -5.1 38.1 -10.95 46.6 -19.95 51.85 L-22.3 53.35 Q-25.4 55.5 -30.6 55.7 L-30.6 55.55 -35.4 50.55 Q-36.4 50.55 -37.0 50.95 -39.7 52.9 -41.95 55.35 L-42.1 55.35 -43.85 55.35 Q-46.55 53.95 -49.7 54.75 L-51.95 54.8 Q-59.25 53.3 -64.05 49.15 -71.75 42.55 -77.0 33.45 L-77.0 33.3 -77.0 31.35 Q-75.05 28.9 -71.7 27.9 L-71.55 27.85 Q-66.5 37.1 -58.05 43.0 -54.65 45.35 -49.8 46.25 -47.85 42.6 -48.45 36.8 L-48.65 32.95 Q-48.4 31.1 -48.5 28.8 L-48.5 28.65 -48.5 28.5 -48.5 23.7 -48.5 23.55 -48.5 21.45 Q-48.2 19.8 -48.35 17.75 L-48.35 17.6 -48.35 17.45 -48.35 12.0 Q-48.05 10.35 -48.15 8.35 L-48.2 8.15 -48.2 8.0 -48.2 5.95 Q-47.9 3.55 -48.0 0.8 L-48.0 0.65 -48.0 0.5 -48.0 -4.8 Q-47.75 -6.8 -47.85 -9.25 L-47.85 -9.4 -47.85 -9.6 -47.85 -13.9 Q-47.6 -15.55 -47.7 -17.6 L-47.7 -17.75 -47.7 -17.9 -47.7 -21.6 Q-47.4 -23.0 -47.55 -24.8 L-47.55 -24.95 -47.55 -25.1 -47.55 -28.3 Q-47.25 -29.6 -47.35 -31.35 L-47.4 -31.5 -47.4 -31.65 -47.4 -37.4 Q-47.1 -38.6 -47.2 -40.15 L-47.2 -40.3 Q-46.95 -42.0 -47.05 -44.15 L-47.05 -44.3 -47.05 -44.45 -47.05 -48.3 Q-46.8 -49.3 -46.9 -50.7 L-46.9 -50.85 Q-46.6 -52.4 -46.75 -54.4 L-46.75 -54.55 -46.75 -54.7 -46.75 -55.8 Q-46.45 -57.3 -46.55 -59.2 L-46.6 -59.35 -46.6 -59.5 -46.6 -60.6 Q-46.3 -62.0 -46.4 -63.8 L-46.4 -64.0 -46.4 -64.15 -46.4 -67.35 Q-46.15 -68.2 -46.25 -69.4 L-46.25 -69.6 Q-46.0 -70.9 -46.1 -72.6 L-46.1 -72.8 -46.1 -72.95 -46.1 -73.9 Q-45.8 -75.2 -45.95 -76.95 L-45.95 -77.1 -45.95 -77.25 -45.95 -78.2 Q-45.55 -84.05 -45.45 -90.2 L-45.45 -90.4 Q-45.2 -91.7 -45.3 -93.4 L-45.3 -93.6 -45.3 -93.75 -45.3 -95.35 Q-44.7 -109.05 -41.5 -120.05 -40.2 -124.45 -38.1 -128.0 -35.9 -125.7 -35.15 -121.8 L-33.95 -116.1 M-42.45 60.05 L-41.8 60.8 Q-48.55 61.25 -53.45 63.6 L-56.35 64.8 -56.35 64.65 Q-53.95 58.15 -45.5 58.75 -43.55 58.9 -42.45 60.05 M-55.05 72.65 Q-56.0 72.9 -55.85 72.0 -53.1 64.25 -42.15 65.9 -38.25 66.45 -36.0 68.95 -33.5 71.75 -34.75 76.15 -39.15 73.4 -44.25 71.4 L-51.9 71.6 -55.05 72.65 M-45.05 83.3 Q-43.45 84.55 -42.75 86.75 L-50.75 86.6 -50.9 86.55 -52.2 87.2 -52.35 87.2 Q-54.2 89.05 -53.35 91.95 L-52.8 92.5 -51.7 92.6 -51.7 92.5 Q-50.65 90.75 -48.35 90.25 L-48.2 90.25 Q-46.9 91.05 -46.9 93.15 L-46.9 93.3 -46.8 96.5 -46.75 96.5 -46.75 96.65 Q-46.1 99.8 -46.75 102.75 L-46.75 102.8 Q-60.15 103.75 -60.0 91.05 -57.85 83.0 -48.5 82.4 -46.35 82.25 -45.05 83.3 M-42.75 75.85 Q-39.25 76.9 -37.6 79.85 -37.65 82.2 -39.25 83.0 L-39.4 83.05 Q-41.4 81.9 -42.9 80.15 -44.0 78.85 -45.95 78.4 -50.75 77.3 -54.6 79.45 -55.95 80.2 -56.8 80.0 -53.9 74.15 -45.0 75.3 L-42.75 75.85 M-43.2 96.95 L-43.2 96.8 -43.2 93.3 -43.2 93.15 -43.2 92.15 Q-42.2 91.1 -40.05 91.3 L-40.0 91.35 Q-39.5 92.65 -39.55 94.55 L-39.55 94.75 -39.55 101.75 -39.55 101.95 Q-39.5 103.25 -39.6 104.35 -40.35 112.6 -39.05 119.55 L-37.95 119.65 -31.05 118.75 -30.95 118.75 Q-30.35 119.1 -30.1 119.85 -30.0 120.85 -30.5 121.2 -32.1 122.35 -34.4 122.95 -35.2 123.15 -35.8 123.75 -37.6 125.55 -38.9 127.85 L-39.05 127.85 -40.8 128.0 Q-41.85 127.5 -42.3 126.5 -43.7 123.45 -47.1 122.65 -50.05 121.95 -50.75 119.2 -50.35 117.85 -48.2 118.25 L-48.0 118.25 Q-45.95 119.7 -43.05 119.55 L-42.9 119.55 Q-41.3 116.25 -41.95 111.35 -42.8 104.3 -43.2 96.95 M-33.1 58.65 Q-32.1 61.1 -30.1 62.65 -26.0 65.85 -22.85 69.85 -21.0 72.2 -20.35 75.55 -19.1 81.8 -15.45 85.5 -14.6 86.4 -13.3 86.9 L-12.2 86.9 -12.0 86.9 -8.85 86.95 -8.8 86.9 3.45 84.7 Q10.6 83.1 19.15 82.9 L24.6 82.9 24.75 82.9 Q33.45 83.35 39.7 86.2 L41.55 86.4 Q42.55 85.95 43.05 85.0 L43.15 84.95 Q43.7 78.35 42.0 72.45 L38.75 61.05 Q35.65 50.05 32.25 39.3 30.45 33.7 29.65 27.35 L27.5 9.3 Q33.0 18.1 42.4 23.15 47.0 25.6 52.8 26.9 60.2 28.6 66.95 30.85 72.3 32.65 75.45 36.7 77.1 38.85 76.8 42.25 L74.3 68.65 Q72.95 81.35 70.75 93.35 69.05 102.55 63.45 107.65 62.5 108.55 61.2 109.05 54.7 111.55 46.55 112.6 L40.65 113.3 34.35 113.6 34.2 113.6 31.15 113.6 31.15 113.75 31.0 113.75 29.25 113.75 29.1 113.75 24.75 113.75 4.8 112.35 -3.7 111.35 -19.7 109.2 -25.65 108.2 Q-32.05 107.2 -35.85 103.85 L-35.9 103.7 Q-36.75 99.4 -35.2 96.0 L-35.1 96.05 -30.4 98.75 -30.25 98.75 -28.35 98.4 Q-28.55 95.75 -30.9 94.4 -34.55 92.4 -36.75 88.95 -37.15 88.35 -36.9 87.4 -35.85 83.3 -33.2 80.55 -31.15 78.4 -31.1 74.4 -31.05 65.6 -35.95 61.55 -37.9 59.9 -38.4 56.8 -37.95 55.35 -36.65 54.75 L-36.5 54.75 Q-34.2 56.05 -33.1 58.65" fill="#cccccc" fill-opacity="0.99607843" fill-rule="evenodd" stroke="none"/>
  </g>
</g></svg>