<svg xmlns:ffdec="https://www.free-decompiler.com/flash" xmlns:xlink="http://www.w3.org/1999/xlink" xmlns="http://www.w3.org/2000/svg" ffdec:objectType="shape" width="256.0206" height="256.0206" viewBox="0 0 256.0206 256.0206">
<g transform="translate(0.0056, 6.2603)">
  <g transform="matrix(1.0, 0.0, 0.0, 1.0, 128.0, 122.0)">
    <path d="M24.4 -117.7 Q34.8 -113.75 42.45 -107.1 50.15 -100.45 55.4 -91.35 60.65 -82.35 63.2 -70.6 64.7 -63.6 65.0 -55.45 L65.0 -49.5 65.0 -49.35 Q64.75 -43.4 63.6 -38.2 61.0 -26.6 55.45 -17.8 49.95 -9.0 42.65 -1.95 35.4 5.1 27.5 11.5 21.6 16.3 18.1 23.4 13.3 33.1 12.05 46.15 L12.05 48.55 12.05 48.7 11.9 48.7 12.0 52.55 12.05 52.55 Q12.6 66.35 17.4 75.7 19.9 80.55 22.75 84.85 28.5 93.5 36.95 99.4 45.35 105.3 58.15 106.7 L59.4 106.8 Q62.1 107.05 65.15 106.85 L65.2 106.8 Q79.05 106.3 88.95 102.0 98.95 97.6 105.15 89.45 111.35 81.35 112.7 68.55 L112.85 65.85 112.95 65.8 Q113.15 63.85 112.85 62.3 112.85 57.8 112.05 54.3 109.95 45.5 105.8 39.05 100.15 30.3 91.7 24.45 83.25 18.55 70.3 17.2 L70.3 17.1 65.65 17.05 65.65 17.2 61.0 17.8 Q49.4 20.55 42.7 28.15 35.95 35.75 33.65 47.75 L33.65 48.85 33.65 49.05 33.5 49.05 33.6 55.1 33.65 55.1 33.9 58.45 Q35.65 70.95 41.0 79.85 46.4 88.85 54.15 95.45 46.9 94.4 41.15 91.15 31.95 86.0 26.4 77.3 20.85 68.5 20.4 54.65 L20.4 54.45 20.4 48.55 20.4 48.4 20.4 46.15 Q21.85 33.3 27.55 24.75 33.3 16.15 42.3 10.75 51.2 5.4 63.55 3.3 69.6 2.25 76.05 3.2 82.3 4.1 87.4 6.25 97.45 10.45 105.25 17.0 113.0 23.5 118.55 32.3 124.1 41.1 126.8 52.85 128.15 58.55 128.0 65.85 127.8 76.3 124.75 83.9 120.6 94.1 113.75 101.55 106.85 109.05 97.75 114.35 88.75 119.6 76.05 121.1 L71.75 121.35 71.6 121.35 68.2 121.35 68.2 121.5 65.65 121.5 Q51.45 121.4 40.95 117.65 30.3 113.9 22.65 107.25 14.95 100.6 9.5 91.75 6.75 87.3 4.75 82.2 1.85 74.75 0.05 66.2 -2.45 54.5 -6.2 43.8 -9.9 33.35 -17.4 26.5 -24.9 19.7 -34.6 15.0 -44.25 10.4 -57.7 9.5 L-57.7 9.45 -61.7 9.35 -61.7 9.5 Q-67.2 9.7 -71.65 10.85 -83.0 13.85 -90.6 20.65 -98.15 27.4 -103.15 36.7 -108.15 46.0 -109.55 58.95 L-109.55 60.05 -109.55 60.25 -109.7 60.25 -109.6 64.7 -109.55 64.7 Q-108.65 78.15 -102.25 86.05 -99.0 90.05 -95.0 93.2 -86.95 99.5 -76.45 103.35 -71.25 105.25 -64.55 105.65 L-59.95 105.75 -59.95 105.65 Q-46.5 104.75 -38.45 98.55 -30.35 92.3 -26.7 81.55 -24.45 75.05 -24.25 66.45 L-24.2 66.45 Q-24.0 63.45 -24.25 60.85 -24.25 57.75 -24.8 55.25 -26.6 47.55 -30.3 41.85 -36.0 33.2 -44.8 27.65 -53.55 22.1 -67.15 21.35 L-67.15 21.25 -71.95 21.2 -71.95 21.35 -72.1 21.35 -72.9 21.2 Q-66.75 18.3 -58.15 17.85 L-58.0 17.85 -53.2 17.85 -53.05 17.85 Q-39.55 18.65 -31.05 24.4 -22.45 30.2 -17.3 39.3 -12.15 48.5 -9.95 60.7 -9.4 63.7 -9.4 67.25 L-9.4 70.45 -9.4 70.65 Q-9.7 78.85 -11.7 85.5 -15.0 96.45 -21.6 104.2 -28.15 111.9 -38.0 116.45 -47.8 120.9 -61.55 121.5 L-61.7 121.5 -65.35 121.5 -77.05 120.15 Q-88.8 117.7 -97.85 112.4 -106.95 107.15 -113.7 99.6 -120.45 92.05 -124.45 81.7 -128.45 71.4 -127.95 56.55 -126.4 43.75 -122.2 33.75 -117.85 23.65 -111.35 15.85 -104.85 8.05 -96.05 2.55 -87.25 -3.0 -75.8 -5.95 -65.35 -8.6 -52.45 -7.85 L-48.3 -7.2 Q-36.9 -4.3 -27.05 0.2 -18.5 4.05 -6.8 4.6 0.45 4.95 6.3 3.55 17.75 0.7 26.05 -5.25 34.45 -11.2 39.95 -20.0 45.45 -28.85 47.9 -40.7 49.2 -47.3 49.35 -55.1 L49.4 -55.15 Q49.6 -57.9 49.35 -60.25 L49.3 -60.55 Q47.75 -73.3 41.95 -81.75 36.1 -90.3 27.6 -96.15 19.1 -101.95 6.3 -103.5 L-7.0 -103.1 Q-19.0 -100.65 -27.0 -94.4 -35.05 -88.1 -39.5 -78.15 -41.7 -73.2 -42.3 -66.8 -43.25 -55.9 -40.15 -48.15 -35.95 -37.9 -29.35 -30.2 -22.7 -22.5 -11.6 -19.35 -5.95 -17.7 1.5 -18.3 11.95 -19.15 19.55 -23.1 29.0 -28.0 36.55 -34.8 36.05 -31.95 35.15 -29.5 31.4 -18.9 23.15 -12.85 14.95 -6.75 2.75 -4.6 L-7.1 -4.1 Q-20.45 -4.8 -29.4 -10.1 -38.45 -15.4 -45.2 -23.0 -51.9 -30.6 -56.05 -40.75 -60.2 -50.95 -59.95 -65.5 -59.0 -78.95 -54.15 -88.4 -49.3 -97.85 -42.05 -104.9 -34.75 -111.95 -25.25 -116.75 -16.4 -121.2 -3.95 -122.0 L-0.1 -122.0 0.05 -122.0 Q14.05 -121.65 24.4 -117.7 M10.6 16.25 Q7.25 13.6 0.55 14.1 -5.2 14.55 -8.75 17.05 L-8.75 17.2 -8.75 18.45 Q-6.75 22.65 -4.15 26.2 -1.55 29.75 2.45 31.9 3.85 31.0 4.85 29.65 L7.95 25.2 Q10.45 21.5 10.6 16.25" fill="#cccccc" fill-opacity="0.99607843" fill-rule="evenodd" stroke="none"/>
  </g>
</g></svg>