<svg xmlns:ffdec="https://www.free-decompiler.com/flash" xmlns:xlink="http://www.w3.org/1999/xlink" xmlns="http://www.w3.org/2000/svg" ffdec:objectType="shape" width="255.75" height="255.75" viewBox="0 0 255.75 255.75">
<g transform="translate(63.4411, 0)">
  <g transform="matrix(1.0, 0.0, 0.0, 1.0, 64.0, 128.0)">
    <path d="M1.3 -112.5 Q13.1 -111.75 21.95 -108.1 24.5 -107.05 27.4 -107.8 29.95 -108.4 30.75 -110.75 30.45 -117.2 27.05 -120.65 23.65 -124.1 20.7 -128.0 29.8 -122.8 37.5 -116.2 45.15 -109.55 51.5 -101.5 57.8 -93.55 62.0 -83.5 64.3 -78.1 64.85 -71.05 L64.85 -66.25 64.85 -66.05 Q64.05 -58.9 62.9 -52.15 61.8 -45.9 59.9 -40.6 L59.7 -40.65 Q57.5 -40.95 56.05 -42.05 L54.95 -42.0 Q48.4 -41.25 46.8 -35.4 44.7 -27.75 41.0 -21.5 35.7 -12.55 28.8 -5.15 21.9 2.25 14.1 8.85 10.25 12.15 5.3 14.45 L5.3 14.3 Q3.65 10.1 4.85 5.15 L9.4 0.45 Q16.3 -6.95 22.3 -15.25 28.3 -23.6 32.65 -33.7 36.95 -43.65 38.1 -56.8 39.1 -68.8 36.15 -77.65 32.55 -88.4 24.15 -94.4 19.95 -97.35 14.85 -99.6 4.85 -104.0 -9.9 -103.1 -23.45 -102.3 -32.65 -97.05 -36.0 -95.15 -38.7 -92.5 -45.95 -85.45 -47.45 -72.75 -48.65 -62.9 -44.3 -57.55 -41.1 -53.55 -38.2 -49.25 L-38.25 -49.1 Q-39.15 -47.5 -41.25 -47.0 -42.35 -47.3 -43.1 -47.85 -45.5 -49.65 -47.5 -51.8 -54.25 -59.35 -54.05 -73.9 -52.5 -86.75 -46.3 -94.8 -40.05 -102.9 -30.1 -107.15 -20.0 -111.5 -6.55 -112.4 L-3.95 -112.5 1.15 -112.5 1.3 -112.5 M8.2 60.6 Q7.2 60.35 7.25 59.1 8.05 57.75 10.45 57.9 19.0 58.55 24.45 62.2 33.05 67.95 36.7 78.65 38.05 82.6 37.5 88.2 36.5 98.55 32.35 105.9 27.15 115.1 18.45 120.75 9.8 126.4 -3.0 127.75 L-16.4 127.15 Q-28.1 124.65 -36.35 118.55 -44.55 112.45 -50.3 103.85 -56.05 95.25 -58.65 83.6 -60.7 74.45 -59.65 63.75 -58.4 50.65 -54.15 40.65 -53.6 39.3 -53.35 37.9 -52.0 30.85 -56.9 29.0 -58.75 28.95 -59.8 29.7 -61.5 30.9 -63.5 31.1 L-63.55 31.05 Q-64.1 29.95 -63.95 28.2 -60.95 16.9 -54.1 9.45 -51.25 6.3 -47.2 4.3 -45.9 3.65 -43.95 3.55 -41.1 6.45 -37.45 8.6 L-37.4 8.7 -32.6 8.85 -32.45 8.85 Q-31.4 14.1 -31.65 20.7 L-31.65 20.85 -31.65 29.0 -31.65 29.15 -31.65 29.35 Q-31.55 32.85 -31.8 36.05 -35.95 41.5 -39.15 47.9 -43.9 57.45 -44.75 70.8 -45.35 80.15 -43.4 87.25 -41.15 95.65 -36.5 101.7 -30.2 109.75 -20.25 114.1 -15.2 116.3 -8.9 117.05 1.8 118.25 10.25 115.55 14.3 114.25 17.5 112.0 25.9 106.15 30.15 96.0 31.7 92.25 31.75 87.1 31.95 76.3 27.3 70.25 21.1 62.15 8.2 60.7 L8.2 60.6 M4.5 -45.9 Q10.7 -39.6 14.55 -30.9 15.65 -28.5 16.2 -25.4 L16.15 -25.3 Q12.85 -19.65 7.7 -15.8 5.15 -16.95 3.15 -18.55 1.1 -20.2 -1.9 -20.95 L-1.9 -20.75 Q-2.9 -14.35 -3.0 -7.0 L-3.0 -1.55 -3.0 -1.4 -3.15 -1.4 -3.15 3.55 -3.15 3.7 -3.15 10.9 -3.15 11.1 -3.3 11.1 -3.3 16.2 -3.3 16.35 -3.3 24.55 -3.3 24.7 -3.3 48.85 -3.3 49.0 -3.3 59.1 -3.3 59.25 -3.25 66.15 -3.15 66.15 -3.15 71.6 -3.15 71.75 -3.15 76.4 -3.15 76.55 -3.1 84.25 -3.0 84.25 -3.0 87.1 -3.0 87.25 -2.9 93.2 -2.85 93.2 -2.8 93.35 -2.05 96.4 -2.1 96.55 Q-6.25 103.2 -11.8 108.55 -14.35 106.8 -16.25 104.35 L-20.15 99.6 Q-21.5 98.1 -21.9 95.6 -21.35 94.9 -21.25 93.85 L-21.25 93.65 Q-20.95 90.75 -21.1 87.45 L-21.1 87.25 -21.1 87.1 -21.1 61.2 -21.1 61.0 -21.1 51.25 -21.1 51.1 -21.1 43.75 -21.1 43.55 Q-20.95 40.4 -21.25 37.65 L-21.25 37.5 -21.25 32.2 -21.25 32.05 -21.25 27.4 -21.25 27.25 Q-21.1 22.95 -21.4 19.1 L-21.4 18.9 -21.4 15.4 -21.4 15.25 Q-21.3 11.9 -21.55 9.0 L-21.7 -6.85 Q-21.8 -14.0 -22.5 -20.45 -25.3 -19.45 -27.4 -17.8 -29.45 -16.15 -32.3 -15.35 L-32.4 -15.35 Q-35.7 -19.45 -37.9 -24.6 L-37.9 -24.75 -37.9 -26.55 Q-33.95 -36.95 -26.75 -44.05 -24.2 -46.55 -21.05 -48.5 L-20.6 -48.8 Q-20.45 -51.75 -20.45 -54.85 L-20.45 -55.05 -20.35 -55.05 Q-20.15 -63.05 -20.45 -70.7 L-20.45 -70.85 Q-20.2 -76.9 -21.25 -81.75 -16.95 -88.25 -11.45 -93.55 L-11.3 -93.6 Q-4.9 -89.65 -0.7 -83.4 L-0.6 -83.35 Q-1.2 -80.6 -1.25 -77.25 L-1.25 -77.1 -1.4 -77.1 -1.3 -66.55 -1.25 -66.55 -1.25 -63.65 -1.25 -63.5 -1.15 -57.6 -1.1 -57.6 -1.1 -57.45 Q-1.35 -52.35 -0.45 -48.45 L3.4 -46.7 4.5 -45.9" fill="#cccccc" fill-opacity="0.99607843" fill-rule="evenodd" stroke="none"/>
  </g>
</g></svg>