<svg xmlns:ffdec="https://www.free-decompiler.com/flash" xmlns:xlink="http://www.w3.org/1999/xlink" xmlns="http://www.w3.org/2000/svg" ffdec:objectType="shape" width="255.9786" height="255.9786" viewBox="0 0 255.9786 255.9786">
<g transform="translate(-0.0214, 78.972)">
  <g transform="matrix(1.0, 0.0, 0.0, 1.0, 128.0, 49.0)">
    <path d="M34.25 -48.85 Q35.05 -48.2 35.3 -46.95 L35.4 -46.95 35.6 -44.25 35.7 -44.2 40.5 -43.75 40.65 -43.75 42.9 -43.55 43.05 -43.6 48.8 -43.4 49.0 -43.4 51.2 -43.25 51.35 -43.25 53.6 -43.25 53.75 -43.25 56.0 -43.1 56.15 -43.1 58.75 -43.1 58.9 -43.1 61.45 -42.95 61.6 -42.95 64.35 -42.95 64.5 -42.95 67.2 -42.75 67.35 -42.8 68.95 -42.8 69.15 -42.8 72.0 -42.6 72.15 -42.6 77.15 -42.6 77.3 -42.6 80.65 -42.45 80.8 -42.45 84.5 -42.45 84.65 -42.45 88.35 -42.3 88.5 -42.3 92.65 -42.3 92.8 -42.3 95.05 -42.15 95.2 -42.15 97.6 -42.15 97.75 -42.15 100.35 -42.15 100.5 -42.15 103.55 -41.95 103.7 -42.0 108.35 -42.0 108.5 -42.0 111.7 -42.0 111.85 -42.0 118.9 -42.0 119.05 -42.0 119.2 -42.0 Q125.2 -42.3 128.0 -39.4 124.45 -33.3 118.75 -29.25 109.55 -22.6 99.6 -16.7 94.55 -13.65 88.95 -11.6 77.15 -7.15 62.4 -5.85 47.9 -4.6 34.45 -2.0 21.25 0.6 18.9 14.15 19.1 29.9 35.05 30.3 38.15 30.35 39.85 32.25 45.4 38.25 43.2 49.05 L43.05 49.05 19.55 49.05 18.3 47.95 Q9.2 41.1 -6.05 40.4 L-6.05 40.35 -9.1 40.25 -9.25 40.25 -10.85 40.25 -10.85 40.15 -13.6 40.1 -13.75 40.1 -17.75 40.1 -17.9 40.1 -20.15 40.1 -20.15 40.25 -34.55 41.25 Q-48.85 42.85 -58.55 49.05 L-58.7 49.05 -80.3 49.05 Q-80.8 41.2 -78.7 35.25 -78.15 33.8 -77.05 33.45 -65.2 29.35 -57.9 21.1 -54.1 16.85 -52.85 10.4 -50.35 -2.3 -58.45 -8.05 -67.75 -14.6 -79.9 -18.55 -91.85 -22.35 -103.8 -26.3 L-127.8 -34.15 -127.8 -34.3 Q-128.05 -38.45 -127.95 -42.95 -127.7 -43.95 -127.8 -45.35 L-127.8 -45.5 -127.8 -45.65 -127.8 -46.15 -127.5 -48.4 -127.5 -48.55 Q-112.15 -49.1 -95.95 -49.0 -80.05 -48.85 -64.15 -48.85 L-32.3 -48.85 -0.45 -48.85 31.4 -48.85 34.25 -48.85 M2.9 -26.3 L2.9 -26.4 -0.15 -26.45 -0.3 -26.45 -1.4 -26.45 -1.4 -26.55 -4.6 -26.6 -4.8 -26.6 -7.2 -26.6 -7.35 -26.6 -15.35 -26.6 -15.5 -26.6 -17.75 -26.6 -17.9 -26.6 -20.45 -26.6 -20.45 -26.45 -20.6 -26.45 Q-28.3 -26.55 -34.05 -24.7 -28.4 -15.5 -24.35 -5.0 -23.9 -3.8 -23.8 -2.75 L-23.35 4.25 -23.25 6.65 -23.2 6.65 -23.2 8.25 -23.2 8.4 -23.2 10.95 -23.2 11.15 -23.1 15.45 -23.0 15.45 Q-20.1 16.4 -16.15 16.25 L-16.0 16.25 -13.6 16.15 -13.6 16.1 Q-9.9 14.8 -9.0 10.45 L-7.5 4.5 Q-4.25 -6.45 2.95 -13.1 6.25 -16.2 10.0 -18.75 13.7 -21.25 16.5 -24.7 10.75 -26.45 3.05 -26.3 L2.9 -26.3" fill="#cccccc" fill-opacity="0.99607843" fill-rule="evenodd" stroke="none"/>
  </g>
</g></svg>