<svg xmlns:ffdec="https://www.free-decompiler.com/flash" xmlns:xlink="http://www.w3.org/1999/xlink" xmlns="http://www.w3.org/2000/svg" ffdec:objectType="shape" width="240" height="240" viewBox="0 0 240 240">
<g transform="translate(19.1506, 0)">
  <g transform="matrix(1.0, 0.0, 0.0, 1.0, 0.0, 0.0)">
    <path d="M178.85 0.0 Q202.1 63.8 170.1 87.95 168.6 98.95 175.45 110.0 180.35 112.4 189.15 107.5 187.55 123.2 176.5 130.5 189.55 133.1 201.6 121.2 203.75 158.45 152.75 184.4 132.5 200.25 127.9 220.15 127.0 230.8 120.2 236.5 118.1 231.0 108.95 225.65 L100.85 240.0 92.75 225.65 Q83.6 231.0 82.2 236.35 74.7 230.8 73.8 220.15 69.25 200.25 49.0 184.4 L48.2 184.0 Q-2.05 158.15 0.1 121.2 12.2 133.1 25.2 130.5 14.2 123.2 12.55 107.5 21.35 112.4 26.3 110.0 33.1 98.95 31.65 87.95 -0.35 63.8 22.85 0.0 51.95 28.4 79.7 50.45 101.45 43.85 122.05 50.45 149.75 28.4 178.85 0.0 M48.5 113.65 Q47.85 133.6 62.65 137.05 72.1 139.25 87.9 134.7 74.6 128.95 62.65 122.2 55.3 118.1 48.5 113.65 M64.95 181.85 Q65.5 188.95 69.0 194.3 69.85 187.8 73.65 182.8 L75.45 183.5 Q76.45 189.6 81.15 194.0 81.25 190.6 84.95 188.3 87.1 189.25 89.05 189.6 89.5 193.15 92.45 196.05 94.0 191.35 97.55 187.4 99.35 185.8 100.75 183.15 102.15 185.8 103.9 187.4 107.5 191.35 109.0 196.05 112.0 193.15 112.4 189.6 114.35 189.25 116.5 188.3 120.2 190.6 120.3 194.0 125.0 189.6 126.0 183.5 L127.8 182.8 Q131.65 187.8 132.5 194.3 135.95 188.95 136.5 181.85 138.7 182.25 140.55 183.35 133.05 175.4 119.85 183.2 106.65 191.0 100.75 178.2 94.8 191.0 81.65 183.2 68.45 175.4 60.9 183.35 62.75 182.25 64.95 181.85 M82.4 159.45 Q87.05 171.2 100.7 173.9 114.3 171.2 119.0 159.45 100.7 154.35 82.4 159.45 M152.25 113.65 Q134.35 125.3 112.85 134.7 153.3 146.3 152.25 113.65" fill="#bcbcbc" fill-rule="evenodd" stroke="none"/>
  </g>
</g></svg>