<svg xmlns:ffdec="https://www.free-decompiler.com/flash" xmlns:xlink="http://www.w3.org/1999/xlink" xmlns="http://www.w3.org/2000/svg" ffdec:objectType="shape" width="256.0255" height="256.0255" viewBox="0 0 256.0255 256.0255">
<g transform="translate(42.4627, 0.0183)">
  <g transform="matrix(1.0, 0.0, 0.0, 1.0, 85.0, 128.0)">
    <path d="M34.55 -123.35 Q45.65 -119.85 55.4 -115.1 65.25 -110.3 74.05 -104.65 79.2 -101.35 83.15 -96.9 85.5 -94.25 86.1 -89.8 L86.1 -87.35 86.1 -87.15 Q85.75 -85.0 84.55 -83.65 79.55 -77.85 73.55 -73.0 L57.55 -60.0 53.4 -56.8 Q44.95 -50.65 39.25 -41.8 39.85 -38.95 39.55 -35.75 38.75 -26.95 32.75 -23.4 L32.6 -23.4 30.15 -23.25 30.15 -23.1 30.0 -23.1 30.05 -18.35 30.15 -18.35 Q30.55 -9.3 31.1 -0.3 L31.1 -0.15 31.1 3.1 31.1 3.25 31.1 6.05 31.1 6.2 31.1 7.5 31.1 7.65 30.95 7.65 31.05 12.05 31.1 12.05 Q31.3 17.65 31.85 22.95 32.45 28.55 31.65 34.0 30.4 42.6 27.0 49.2 24.2 54.65 22.5 61.05 21.1 66.15 22.7 70.6 24.6 76.0 25.1 82.8 L25.0 82.85 Q24.65 83.9 23.65 84.25 20.5 83.45 18.0 82.0 15.4 80.5 13.1 78.8 4.7 72.55 1.75 61.0 L1.65 60.2 Q1.55 52.7 -0.2 47.05 -1.9 41.5 -8.55 40.8 -19.55 39.65 -25.2 45.35 -32.45 52.6 -38.5 61.1 -44.55 69.65 -49.0 79.9 -51.2 84.9 -51.8 91.6 -51.05 93.55 -49.7 95.0 -45.75 99.3 -40.9 102.8 -36.7 105.9 -36.05 112.55 L-36.15 112.6 Q-36.6 113.65 -37.5 114.2 -41.25 114.2 -43.9 113.15 -54.45 109.1 -63.1 103.2 -65.25 101.7 -67.7 100.55 -71.45 98.8 -72.3 94.2 L-72.3 94.05 -72.3 91.4 -70.35 77.4 -69.4 72.75 Q-66.6 61.1 -60.5 52.65 -58.55 50.0 -56.05 48.0 -54.5 46.75 -54.1 44.4 L-54.1 44.25 Q-54.45 43.3 -55.4 42.95 L-56.2 43.15 Q-60.8 46.1 -63.9 50.65 -69.8 59.25 -73.1 70.45 L-73.25 70.4 Q-79.35 66.35 -80.1 56.95 L-80.1 56.8 -80.1 54.2 -79.7 52.65 Q-76.7 42.45 -69.6 36.2 L-67.5 34.7 Q-65.4 33.55 -64.5 31.25 L-64.5 31.1 Q-64.75 29.85 -65.8 29.45 L-66.5 29.65 Q-75.6 34.8 -80.6 44.1 L-80.75 44.05 Q-84.1 41.45 -85.0 36.3 L-85.0 36.1 -85.0 33.35 -85.0 33.2 -85.0 33.05 Q-84.7 32.6 -84.8 31.75 L-84.85 31.55 Q-81.9 23.7 -75.05 19.7 -72.75 18.35 -71.5 15.95 -71.6 14.25 -73.1 14.0 L-73.3 14.0 Q-75.8 14.85 -77.55 16.35 L-81.1 19.55 Q-81.75 18.05 -81.75 15.95 L-81.75 15.8 -81.75 15.65 -81.75 13.2 -81.75 13.0 -81.75 12.35 Q-80.15 6.65 -77.05 2.45 L-70.75 -5.9 Q-64.5 -14.2 -57.65 -21.95 -50.8 -29.65 -43.15 -36.5 -42.0 -37.55 -41.2 -39.1 L-38.45 -44.3 Q-37.65 -45.85 -37.85 -48.45 -40.4 -51.05 -41.4 -55.3 L-41.4 -55.45 -41.4 -55.6 -41.4 -57.9 -41.4 -58.05 -41.4 -58.4 Q-38.65 -65.5 -32.0 -68.7 L-27.4 -70.75 -25.15 -70.9 -25.0 -70.9 Q-22.7 -75.85 -22.25 -82.6 L-22.2 -82.8 -22.15 -82.8 Q-21.95 -85.2 -22.2 -87.15 -22.6 -93.65 -25.55 -97.5 -26.6 -98.8 -28.05 -99.6 -32.2 -101.9 -33.6 -106.85 L-33.6 -107.0 -33.6 -109.45 -33.6 -109.6 -33.6 -110.1 Q-31.85 -115.65 -27.5 -118.65 -22.15 -122.4 -15.55 -124.85 -4.7 -128.85 10.15 -127.8 23.55 -126.85 34.55 -123.35 M12.15 82.55 Q17.55 88.1 19.15 97.15 20.45 104.55 18.3 110.3 14.35 120.9 4.55 125.75 0.95 127.55 -4.0 127.9 -14.95 128.65 -21.55 124.15 -25.9 121.15 -29.1 116.95 -33.75 110.8 -33.75 99.9 -32.1 87.0 -24.0 80.5 -18.9 76.45 -11.05 74.9 L-8.55 74.85 -5.65 74.85 -5.45 74.85 -2.5 75.0 Q6.7 76.95 12.15 82.55 M28.2 -49.8 Q20.65 -56.75 11.2 -61.8 1.65 -66.9 -12.15 -67.65 L-12.15 -67.75 -18.5 -67.8 -18.5 -67.65 -18.65 -67.65 Q-32.9 -67.45 -37.5 -57.55 L-37.5 -55.45 -37.5 -55.3 -36.55 -53.35 -36.55 -53.2 Q-26.25 -57.15 -13.45 -58.55 L-13.25 -58.55 -8.55 -58.55 -8.4 -58.55 Q5.05 -57.4 13.4 -51.25 21.8 -45.05 27.5 -36.25 L32.6 -28.15 Q35.2 -31.4 35.5 -36.9 L35.5 -37.1 35.6 -37.1 Q35.8 -38.75 35.5 -40.0 32.65 -45.7 28.2 -49.8" fill="#cccccc" fill-opacity="0.99607843" fill-rule="evenodd" stroke="none"/>
  </g>
</g></svg>