<svg xmlns:ffdec="https://www.free-decompiler.com/flash" xmlns:xlink="http://www.w3.org/1999/xlink" xmlns="http://www.w3.org/2000/svg" ffdec:objectType="shape" width="256.0276" height="256.0276" viewBox="0 0 256.0276 256.0276">
<g transform="translate(76.9388, 0)">
  <g transform="matrix(1.0, 0.0, 0.0, 1.0, 56.0, 128.0)">
    <path d="M8.35 -91.5 L8.35 -91.35 8.35 -86.85 8.35 -86.7 Q8.6 -84.0 8.5 -80.95 L8.5 -80.75 8.5 -77.1 8.5 -76.95 8.5 -75.3 8.5 -75.15 Q8.75 -72.95 8.65 -70.35 L8.65 -70.2 8.65 -65.1 8.65 -64.9 8.65 -56.25 8.65 -56.1 8.65 -46.2 8.65 -46.05 8.65 -38.85 8.65 -38.65 8.65 -37.4 8.65 -37.25 Q8.95 -36.0 8.8 -34.35 L8.8 -34.2 8.8 -33.2 8.8 -33.05 Q9.1 -32.15 9.0 -30.8 L8.95 -30.65 8.95 -30.0 8.95 -29.85 Q9.25 -28.95 9.15 -27.6 L9.15 -27.45 9.15 -26.5 Q9.55 -12.6 11.6 -0.25 12.65 5.85 17.3 8.4 L17.3 8.55 Q17.75 12.05 16.65 14.8 16.1 15.3 15.2 15.4 9.5 16.05 6.55 19.45 L6.55 19.6 4.65 27.95 Q4.2 30.6 6.4 30.65 L6.55 30.65 9.95 30.65 10.1 30.65 Q19.1 30.15 24.05 25.55 27.8 22.1 31.2 18.3 L31.25 18.25 40.8 17.35 Q38.3 21.3 34.85 24.4 27.35 31.2 15.7 33.9 L9.6 34.75 Q6.45 34.9 4.15 35.75 3.6 36.65 3.6 37.85 3.65 42.3 1.75 44.6 L-3.1 44.75 -4.5 44.4 Q-7.95 43.8 -7.7 39.75 -7.4 39.65 -7.5 39.15 L-7.5 38.95 -7.5 38.8 -7.5 36.55 Q-7.6 35.6 -8.35 35.35 L-19.25 31.95 Q-30.0 28.6 -38.6 22.85 -42.95 20.0 -45.6 15.45 L-34.4 16.05 -34.25 16.1 Q-29.85 20.65 -24.85 24.65 -19.4 29.1 -10.4 29.9 -6.85 30.2 -7.05 26.65 L-7.05 26.5 -7.05 22.3 Q-7.15 17.65 -10.35 16.0 -13.5 14.45 -17.6 13.85 L-17.65 13.7 Q-19.2 11.35 -19.05 7.3 -13.9 4.15 -14.4 -4.55 L-14.4 -4.75 -14.4 -4.9 -14.4 -7.15 -14.25 -7.15 -14.25 -7.3 -14.25 -7.75 Q-12.75 -20.6 -11.9 -34.2 L-10.7 -51.65 -10.7 -51.8 -10.7 -54.35 -10.55 -54.35 -10.55 -54.5 -10.55 -55.95 -10.55 -56.1 -10.55 -58.85 -10.4 -58.85 -10.4 -59.0 -10.4 -60.6 Q-9.65 -67.45 -9.45 -74.85 L-9.45 -75.0 -9.45 -75.15 -9.45 -77.4 -9.3 -77.4 -9.3 -77.55 -9.3 -78.55 -9.3 -78.7 -9.3 -81.75 -9.1 -81.75 -9.1 -81.9 -9.1 -83.15 -9.1 -83.35 -9.1 -86.35 -9.1 -86.55 -9.1 -88.75 -8.95 -88.75 -8.95 -88.95 -8.95 -100.6 -8.95 -100.8 -8.95 -105.1 -8.8 -105.1 -8.8 -105.25 -8.8 -107.5 Q-7.8 -113.55 -6.15 -118.9 -4.5 -124.3 -1.1 -128.0 6.3 -121.1 7.5 -107.7 L8.0 -98.85 Q8.3 -97.95 8.2 -96.6 L8.15 -96.45 8.15 -94.55 8.15 -94.35 Q8.45 -93.15 8.35 -91.5 M43.85 31.3 Q45.95 33.6 45.95 38.0 L45.95 38.15 Q46.2 39.5 46.1 41.2 L46.1 41.35 46.1 41.55 Q46.25 42.85 45.95 43.8 L45.95 43.95 Q46.05 46.1 45.6 47.8 L45.6 50.0 45.6 50.2 45.65 50.35 Q45.75 52.0 45.45 53.2 45.1 63.6 39.4 68.6 37.4 70.4 34.1 70.2 L34.0 70.15 Q32.0 68.3 30.6 65.85 L30.45 65.85 28.95 64.9 Q31.95 60.05 32.65 52.9 L32.65 52.75 32.65 52.6 32.65 47.95 32.65 47.8 Q32.3 42.65 30.6 38.95 36.85 35.55 42.5 31.55 L43.85 31.3 M14.75 37.05 L19.15 40.0 19.2 40.1 21.9 45.7 Q22.4 46.65 22.4 48.1 22.7 49.25 22.5 50.8 L22.4 50.8 Q22.2 53.25 21.45 55.25 L16.8 65.7 15.6 66.15 Q7.6 67.9 1.25 71.55 -0.25 72.35 -2.25 72.35 -8.15 72.25 -12.45 70.35 -14.35 69.5 -16.4 68.95 -18.8 68.25 -18.9 66.2 L-18.7 65.75 Q-17.05 65.65 -15.5 66.65 -14.0 67.55 -13.3 66.35 L-13.35 66.05 Q-14.3 63.7 -16.95 62.85 -19.55 62.05 -19.85 58.8 -18.35 56.75 -16.4 58.95 -15.75 59.65 -14.55 59.8 -13.95 59.9 -13.75 59.6 -12.8 59.15 -13.35 58.05 L-13.45 58.0 Q-16.9 55.9 -19.3 52.75 -19.7 52.2 -19.7 51.3 -19.3 50.15 -17.9 50.05 L-17.75 50.0 Q-15.15 51.5 -12.4 52.7 L-11.35 52.6 Q-10.65 51.55 -11.55 50.7 L-11.7 50.65 Q-16.45 48.15 -19.35 43.85 L-19.5 43.3 Q-18.85 40.3 -16.75 38.65 -15.4 37.6 -13.55 37.1 L-11.5 37.2 Q-10.75 37.8 -12.2 38.45 -13.95 39.2 -14.4 41.2 -13.45 43.9 -10.5 44.7 -7.9 45.4 -5.3 46.45 -1.0 48.15 3.35 46.5 7.1 45.1 8.95 41.85 9.2 39.45 8.2 38.3 L8.15 38.15 Q11.1 37.3 14.55 37.05 L14.75 37.05 M6.25 41.5 Q5.9 42.5 5.7 41.5 L5.6 40.9 Q6.75 40.15 6.25 41.5 M23.35 40.25 Q22.8 39.05 24.5 39.3 L25.55 39.5 Q28.35 41.2 28.65 45.55 L28.75 47.45 Q29.25 58.45 24.75 64.7 24.0 65.75 22.8 66.25 21.2 66.85 20.65 66.05 23.6 61.15 25.45 55.25 26.1 53.1 26.25 50.5 L26.25 50.35 26.25 47.95 26.25 47.8 Q25.8 43.1 23.35 40.4 L23.35 40.25 M6.1 71.8 Q10.8 72.85 10.4 78.2 L10.4 78.35 Q6.7 82.35 1.3 84.6 0.3 85.05 0.65 86.05 2.0 87.25 3.85 86.05 5.85 84.7 8.2 84.55 8.7 84.5 8.8 85.1 9.45 86.7 8.0 87.8 L1.55 92.3 Q0.95 92.65 1.3 93.25 L4.05 93.35 Q5.75 92.25 7.4 92.15 7.85 92.1 8.15 92.45 9.15 93.6 8.2 94.7 L8.15 94.85 Q5.55 97.45 1.65 98.85 1.4 98.95 1.45 99.5 2.0 100.85 4.35 100.45 L4.5 100.45 Q5.95 99.15 7.95 99.55 L8.0 99.8 Q7.8 102.3 5.35 102.75 2.45 103.3 -0.3 104.1 -4.45 105.35 -9.6 105.35 -12.7 105.35 -14.8 104.25 -16.0 103.55 -17.4 103.1 -21.8 101.5 -25.55 99.4 -26.9 98.65 -28.8 98.5 -30.85 94.05 -32.25 89.15 -33.15 85.95 -32.95 81.85 -31.05 77.95 -28.45 74.7 L-26.5 71.55 Q-24.25 70.2 -21.6 69.25 L-21.45 69.25 Q-18.95 70.25 -16.8 71.6 L-16.65 71.65 Q-16.35 72.95 -16.45 74.65 L-16.5 74.85 Q-14.55 80.1 -8.0 80.45 L-4.8 80.2 Q1.0 79.1 5.4 76.65 6.1 76.2 5.95 75.0 4.35 73.0 5.95 71.85 L6.1 71.8 M1.75 75.1 Q1.3 75.05 1.45 74.35 2.95 73.75 2.1 75.05 L1.75 75.1 M2.85 113.5 Q5.05 117.0 4.05 122.65 3.55 125.15 2.2 126.95 1.3 128.2 -0.3 128.0 -1.65 126.85 -0.8 124.6 0.65 120.75 -1.75 118.7 -3.3 118.95 -3.4 120.6 -3.5 122.55 -4.95 123.0 -6.7 122.35 -6.7 119.8 -6.75 118.5 -8.0 118.2 -10.35 119.6 -9.5 123.9 L-9.4 124.6 Q-9.05 126.85 -10.25 127.5 -13.3 126.4 -14.05 122.9 -14.7 120.0 -15.0 116.75 L-15.05 115.65 Q-13.55 111.6 -9.95 109.6 -9.65 109.45 -9.7 108.75 L-9.6 108.6 Q-9.05 107.6 -7.0 107.7 L-4.05 107.3 Q-2.4 106.7 -1.45 107.5 -1.05 110.75 1.3 112.05 2.25 112.55 2.85 113.5 M-47.7 64.45 Q-44.15 68.15 -39.35 70.65 -44.75 77.2 -43.55 89.2 -43.1 93.6 -41.45 97.1 L-43.7 98.35 -43.85 98.35 Q-45.15 100.8 -47.25 102.5 L-47.35 102.5 Q-50.0 102.25 -51.3 100.7 -55.2 96.05 -55.7 87.95 L-55.75 87.95 -55.85 84.6 -55.85 84.45 -55.85 82.85 -55.95 82.85 -56.0 76.75 -55.85 76.75 -55.85 76.6 -55.85 75.0 Q-55.5 69.3 -54.05 64.6 -53.6 63.0 -52.15 62.35 -49.3 62.75 -47.7 64.45 M-31.05 71.15 Q-32.2 74.15 -34.25 76.3 -36.3 78.45 -36.65 82.35 L-36.65 86.2 -36.65 86.35 -36.6 88.65 Q-36.05 92.05 -34.5 94.4 -32.9 96.85 -32.8 100.1 L-34.3 99.9 Q-40.85 95.05 -40.15 83.0 -39.3 75.7 -35.1 71.75 L-35.05 71.65 Q-33.25 70.9 -31.2 71.15 L-31.05 71.15 M-8.5 78.3 Q-10.4 78.3 -9.9 76.1 -9.4 73.45 -6.5 74.7 -4.9 75.35 -2.55 75.2 -1.8 75.15 -1.45 75.45 -3.3 78.4 -8.5 78.3 M-13.1 75.4 Q-14.1 74.95 -13.9 73.25 -11.7 73.15 -12.8 75.4 L-13.1 75.4" fill="#cccccc" fill-rule="evenodd" stroke="none"/>
  </g>
</g></svg>