<svg xmlns:ffdec="https://www.free-decompiler.com/flash" xmlns:xlink="http://www.w3.org/1999/xlink" xmlns="http://www.w3.org/2000/svg" ffdec:objectType="shape" width="256" height="256" viewBox="0 0 256 256">
<g transform="translate(0, 23.875)">
  <g transform="matrix(1.0, 0.0, 0.0, 1.0, 128.0, 104.0)">
    <path d="M70.5 -51.8 Q81.4 -48.75 95.15 -49.65 L100.0 -50.25 Q111.95 -52.65 121.7 -57.35 L125.3 -58.85 127.85 -58.85 128.0 -58.85 Q127.1 -52.5 124.75 -47.8 122.25 -42.95 119.3 -38.75 113.35 -30.3 103.7 -25.75 98.1 -23.1 90.85 -22.35 L64.4 -20.15 61.7 -20.05 61.5 -20.05 59.25 -20.05 59.25 -19.9 59.1 -19.9 58.15 -19.9 58.0 -19.9 55.6 -19.9 55.65 -19.6 55.75 -19.6 Q65.85 -15.35 79.3 -14.2 L86.2 -14.0 89.05 -13.8 89.25 -13.8 91.0 -13.8 91.15 -13.8 94.35 -13.9 94.35 -14.0 94.85 -14.0 95.15 -14.0 Q94.0 -10.15 91.7 -7.2 L87.7 -2.1 Q81.15 5.75 71.45 10.35 66.8 10.15 63.05 9.2 51.2 6.25 39.75 3.95 40.4 5.6 41.65 6.7 45.25 9.95 50.35 11.9 L60.9 15.65 Q58.0 18.95 54.3 21.45 45.75 27.2 32.2 28.0 L32.05 28.0 29.8 28.0 Q28.6 27.8 28.05 27.0 26.4 24.75 24.35 22.85 27.95 31.6 29.3 42.55 L29.3 42.75 29.3 47.35 29.3 47.55 Q29.3 49.9 28.75 51.8 26.35 60.35 21.9 66.85 16.1 75.4 10.85 84.5 5.6 93.55 1.9 104.25 L1.8 104.2 Q-3.1 101.75 -2.55 93.85 -0.3 85.35 3.5 78.5 6.6 72.85 8.0 65.65 L8.1 65.6 Q8.3 64.0 8.0 62.75 L8.0 62.6 Q7.6 59.05 5.3 57.45 L4.85 59.25 Q3.45 65.65 -2.55 67.5 -3.8 67.9 -4.65 67.25 -3.35 65.2 -3.35 61.8 L-3.35 61.65 -3.3 61.6 Q-3.1 58.7 -3.35 56.2 L-3.55 54.9 Q-5.8 46.6 -11.15 41.35 -15.2 37.35 -18.55 32.65 -21.65 28.25 -21.3 21.25 -23.4 23.25 -24.95 25.85 L-26.25 27.3 Q-29.35 29.75 -35.1 29.45 L-35.25 29.45 -40.55 29.45 -43.45 29.45 Q-56.5 28.25 -61.7 19.35 L-57.85 18.3 Q-46.95 14.95 -40.35 7.15 L-42.45 7.5 Q-53.3 10.95 -65.2 13.4 -69.6 14.35 -72.8 12.6 -79.7 8.85 -84.45 2.85 -90.75 -5.15 -96.3 -14.0 L-88.25 -14.0 -88.1 -14.0 -85.05 -14.0 -84.9 -14.0 -80.9 -14.0 -80.75 -14.0 -77.55 -14.0 -77.4 -14.0 -74.5 -14.0 -74.35 -14.0 -71.6 -14.05 -71.6 -14.15 Q-62.1 -14.0 -55.75 -17.0 L-55.6 -17.0 -55.45 -17.1 -61.7 -17.35 Q-70.85 -17.8 -78.7 -19.45 -90.55 -22.0 -101.25 -25.65 -105.25 -27.0 -108.65 -29.05 -117.55 -34.45 -123.2 -43.15 -127.4 -49.65 -128.0 -59.8 L-125.75 -59.8 -125.6 -59.8 Q-120.05 -58.15 -115.4 -55.7 -112.35 -54.1 -108.95 -53.0 -99.95 -50.05 -88.25 -49.7 L-83.95 -49.6 -83.95 -49.7 -80.9 -49.7 -80.75 -49.7 -76.4 -49.8 -76.4 -49.85 Q-64.05 -51.8 -53.5 -55.55 -43.25 -59.15 -30.75 -60.45 L-27.55 -60.45 -27.4 -60.45 -27.25 -60.45 Q-23.5 -60.25 -22.25 -57.55 -22.15 -56.1 -22.5 -55.0 -23.45 -52.15 -25.0 -49.85 L-24.95 -49.75 Q-22.2 -47.6 -18.75 -46.2 -15.95 -46.1 -14.25 -47.05 -9.0 -50.0 -7.2 -56.25 -6.7 -57.95 -7.25 -59.9 -8.35 -63.55 -11.6 -65.25 L-16.55 -67.6 Q-19.2 -68.8 -22.6 -68.05 L-23.15 -67.85 Q-25.55 -66.45 -29.2 -66.75 -32.7 -67.05 -34.1 -69.25 L-34.1 -69.35 Q-32.45 -71.25 -29.95 -72.3 -32.65 -72.0 -34.85 -70.5 -36.9 -69.05 -39.75 -68.45 L-39.75 -68.55 Q-41.6 -70.8 -41.35 -75.15 -39.45 -80.9 -33.65 -82.75 L-33.65 -82.85 -33.8 -86.05 -33.8 -86.2 Q-31.75 -90.9 -25.3 -91.15 -14.95 -91.55 -8.0 -95.45 -6.95 -96.0 -6.2 -96.9 -4.15 -99.2 -4.05 -103.55 L-3.7 -104.0 Q-0.9 -102.1 -0.65 -97.9 -0.25 -93.0 -2.4 -90.4 L7.55 -91.65 7.7 -91.65 11.35 -91.65 11.55 -91.65 Q17.4 -91.0 21.5 -88.5 25.2 -86.25 27.5 -82.7 27.85 -82.2 27.05 -82.35 L26.75 -82.4 26.6 -82.4 22.6 -82.4 22.45 -82.4 Q15.4 -82.8 10.55 -80.95 L18.3 -77.8 19.85 -77.05 Q24.75 -74.45 25.45 -67.65 25.5 -67.05 25.15 -66.85 22.45 -66.85 20.45 -68.35 18.35 -69.85 15.55 -69.75 L17.8 -64.85 Q19.9 -60.15 18.75 -54.1 L18.15 -52.2 15.85 -47.45 Q16.35 -46.85 17.15 -46.5 L17.3 -46.5 Q21.25 -46.7 23.8 -48.3 L26.65 -50.45 26.75 -50.65 Q26.15 -53.05 24.8 -54.65 24.35 -55.25 24.05 -55.95 L24.05 -57.7 24.05 -57.85 Q26.55 -60.95 32.2 -60.3 45.25 -58.8 56.55 -55.7 L70.5 -51.8 M-11.4 -82.85 Q-12.7 -83.5 -14.25 -83.85 -20.8 -85.5 -23.05 -80.8 -22.75 -78.8 -20.7 -78.45 L-18.45 -78.35 Q-13.25 -78.85 -11.4 -82.85 M0.95 22.4 L0.8 22.4 -0.65 22.4 -0.7 22.5 Q-3.6 25.0 -4.95 29.1 -5.05 30.8 -4.5 31.95 -2.0 37.65 2.05 41.95 9.05 49.3 17.8 54.9 19.85 51.05 19.4 44.65 18.95 39.05 16.25 35.75 9.8 27.9 0.95 22.4" fill="#cccccc" fill-opacity="0.99607843" fill-rule="evenodd" stroke="none"/>
  </g>
</g></svg>