<svg xmlns:ffdec="https://www.free-decompiler.com/flash" xmlns:xlink="http://www.w3.org/1999/xlink" xmlns="http://www.w3.org/2000/svg" ffdec:objectType="shape" width="256.0103" height="256.0103" viewBox="0 0 256.0103 256.0103">
<g transform="translate(63.4604, -0.0073)">
  <g transform="matrix(1.0, 0.0, 0.0, 1.0, 65.0, 128.0)">
    <path d="M13.25 -106.4 Q11.25 -102.6 11.5 -96.2 12.1 -81.1 11.9 -65.6 11.65 -50.6 10.75 -35.85 10.2 -26.55 11.2 -17.3 11.7 -12.25 13.85 -8.6 L25.25 10.85 36.8 30.1 Q42.55 39.65 47.75 49.95 52.9 60.1 57.2 71.25 60.95 80.9 63.3 91.95 64.8 98.85 63.45 106.05 62.6 110.8 60.05 114.0 53.25 122.6 41.25 125.9 30.25 128.9 16.85 127.65 L6.85 126.35 Q8.95 123.6 13.2 122.9 L14.75 122.45 Q25.7 118.1 32.9 109.85 40.1 101.7 43.1 89.5 44.75 82.8 43.75 75.3 41.95 61.75 35.05 53.3 28.15 44.8 19.6 37.9 13.25 32.8 6.4 28.05 -2.65 21.75 -12.7 16.5 L-21.6 11.4 Q-23.05 10.5 -24.1 9.2 L-24.1 7.5 -24.1 7.3 -13.1 -12.4 Q-11.7 -14.95 -11.5 -18.5 -11.0 -26.0 -11.2 -33.45 -11.4 -41.05 -11.25 -48.6 L-10.95 -79.05 Q-10.9 -86.05 -10.4 -92.45 -9.9 -98.7 -10.65 -104.3 L-10.85 -105.35 Q-11.5 -106.0 -12.55 -106.3 L-12.55 -106.4 -19.95 -106.05 -20.1 -106.05 Q-27.85 -108.1 -27.7 -118.05 L-27.7 -118.25 Q-25.65 -126.8 -15.3 -126.95 L14.75 -127.95 Q23.15 -128.35 27.5 -125.0 29.75 -123.3 30.65 -120.35 31.7 -117.05 30.35 -113.9 27.6 -107.4 18.9 -107.25 L13.25 -106.4 M34.1 73.25 Q34.6 75.9 34.55 78.9 34.5 94.25 27.45 102.55 20.6 110.55 9.8 114.7 3.2 117.2 -5.45 115.8 -13.55 114.45 -18.6 109.85 -22.65 106.15 -25.6 101.35 -29.25 95.4 -29.55 86.3 -29.7 80.85 -28.15 77.05 -26.1 72.1 -22.85 68.6 -21.75 67.35 -19.6 67.2 -19.6 72.95 -20.55 77.55 -21.65 83.05 -20.6 88.15 -17.95 100.9 -6.35 104.65 -1.6 106.2 3.8 105.05 16.35 102.2 21.9 92.3 24.65 87.35 24.45 79.55 24.25 72.15 21.65 67.1 16.4 56.85 5.55 52.25 0.05 49.85 -7.7 50.7 -14.5 51.45 -19.2 54.5 -28.5 60.6 -33.45 71.1 -37.15 78.9 -36.95 90.4 -36.85 97.85 -34.5 103.2 -29.8 113.95 -20.4 119.85 L-12.85 123.85 Q-12.3 124.1 -11.8 124.6 L-11.0 125.65 -14.45 126.25 Q-30.35 126.7 -43.3 124.2 -56.15 121.7 -62.05 112.2 -64.4 108.45 -64.85 102.95 L-65.0 98.85 Q-62.2 86.25 -57.7 75.2 -53.35 64.35 -48.5 53.8 L-38.55 33.05 Q-35.9 27.8 -32.8 23.15 -32.4 22.5 -31.65 22.1 L-30.1 22.1 -29.95 22.1 Q-18.95 26.55 -8.55 31.5 1.9 36.45 11.0 42.75 20.1 49.05 27.15 57.4 32.4 63.65 34.1 73.25" fill="#cccccc" fill-opacity="0.99607843" fill-rule="evenodd" stroke="none"/>
  </g>
</g></svg>