<svg xmlns:ffdec="https://www.free-decompiler.com/flash" xmlns:xlink="http://www.w3.org/1999/xlink" xmlns="http://www.w3.org/2000/svg" ffdec:objectType="shape" width="255.969" height="255.969" viewBox="0 0 255.969 255.969">
<g transform="translate(50.8595, 0.019)">
  <g transform="matrix(1.0, 0.0, 0.0, 1.0, 77.0, 128.0)">
    <path d="M16.7 -105.7 Q18.7 -105.7 20.2 -105.0 22.8 -103.8 24.45 -101.75 21.85 -97.25 17.6 -94.25 L13.65 -91.1 Q10.7 -88.6 6.6 -87.4 L2.55 -87.1 Q-3.1 -87.8 -5.25 -92.05 1.2 -99.85 10.85 -104.55 13.2 -105.7 16.7 -105.7 M55.5 -128.0 Q62.2 -128.2 67.5 -126.3 71.55 -124.9 75.15 -123.15 L77.25 -121.65 Q77.05 -118.3 76.15 -115.6 L69.0 -94.3 61.55 -73.25 53.9 -52.35 46.3 -31.5 38.7 -10.65 31.05 10.2 23.45 31.05 Q21.5 36.3 20.0 42.05 L19.85 42.05 19.95 46.0 20.0 46.0 Q20.0 47.85 20.15 49.5 L20.2 49.65 20.2 53.15 20.2 53.35 20.15 53.95 19.95 55.35 15.8 67.55 7.9 88.3 -0.05 108.7 Q-4.1 118.95 -9.4 127.95 L-10.85 127.95 -14.85 127.05 Q-22.4 125.05 -26.9 120.15 L-26.9 120.0 -26.9 118.55 Q-23.8 107.4 -20.1 97.0 L-12.5 76.05 -4.9 55.2 Q-2.9 49.5 0.05 44.7 1.4 42.55 3.1 40.7 7.4 36.1 9.55 29.2 10.4 26.6 11.4 24.05 L19.35 3.55 27.3 -17.0 35.25 -37.6 43.1 -58.25 50.7 -79.0 58.35 -99.95 Q60.7 -106.55 62.35 -114.0 62.45 -114.45 62.15 -114.45 59.85 -115.55 57.05 -116.15 54.2 -116.75 52.95 -118.95 52.8 -124.8 55.35 -127.95 L55.5 -128.0 M44.3 -89.05 Q42.15 -78.8 36.25 -72.3 25.85 -76.2 17.3 -81.85 16.1 -82.65 15.55 -84.1 21.95 -91.95 31.0 -97.15 33.4 -98.5 36.55 -98.15 L37.85 -97.9 Q42.0 -96.6 43.85 -93.2 44.85 -91.5 44.3 -89.05 M10.65 -58.15 Q21.05 -57.3 24.4 -49.3 L24.45 -49.25 Q24.35 -44.95 23.0 -42.0 L20.65 -36.8 Q19.45 -34.15 17.5 -32.4 11.1 -33.15 6.4 -35.5 1.3 -38.1 -3.3 -41.0 -6.05 -42.7 -7.6 -45.5 L-7.65 -45.75 Q-0.65 -53.0 9.15 -57.3 L10.65 -58.15 M6.35 -7.75 Q6.2 -1.3 4.35 4.1 L2.4 10.25 Q0.85 15.4 -1.75 19.45 -6.9 19.25 -10.45 17.65 -15.25 15.45 -19.55 13.0 -23.6 10.6 -26.7 7.35 L-26.9 6.55 Q-20.75 -1.55 -12.55 -7.6 -8.3 -10.7 -3.05 -12.85 L-1.3 -12.85 -1.15 -12.85 Q3.05 -10.8 6.3 -7.85 L6.35 -7.75 M-26.55 -100.0 Q-23.7 -104.3 -19.2 -107.0 -13.45 -110.5 -6.95 -113.15 L-2.4 -113.5 Q2.3 -112.5 4.6 -109.05 -1.0 -104.0 -8.05 -100.35 -13.8 -97.45 -19.75 -94.75 -25.2 -95.0 -26.5 -99.4 L-26.55 -100.0 M-31.5 -53.1 Q-23.85 -59.65 -14.8 -64.85 -11.65 -66.7 -7.15 -65.8 -3.45 -65.0 -0.65 -63.25 -1.3 -60.35 -3.25 -58.7 -9.05 -53.85 -15.9 -50.0 -18.5 -48.55 -21.5 -47.5 L-22.75 -47.5 -22.9 -47.5 Q-28.1 -49.3 -31.45 -52.95 L-31.5 -53.1 M-21.95 -69.8 Q-21.6 -69.5 -21.5 -69.0 -29.0 -62.25 -38.45 -57.4 -42.05 -55.6 -46.8 -55.05 L-50.3 -55.3 Q-54.25 -56.65 -56.9 -59.15 -57.35 -59.55 -57.25 -60.4 -50.2 -67.55 -40.35 -72.1 -37.05 -73.6 -32.6 -74.05 -29.85 -74.3 -27.6 -73.3 -24.35 -71.9 -21.95 -69.8 M-49.6 -29.75 Q-46.85 -29.05 -44.75 -28.05 -42.2 -26.8 -41.05 -24.3 -43.1 -22.35 -45.55 -20.8 -54.2 -15.25 -63.8 -10.6 L-64.75 -10.65 Q-70.95 -11.4 -75.0 -14.3 -76.45 -15.35 -77.0 -17.3 -69.75 -24.3 -59.55 -28.35 -56.95 -29.4 -53.6 -29.7 L-50.6 -29.7 -50.45 -29.7 -49.6 -29.75 M-52.35 -6.3 Q-45.8 -14.0 -36.0 -18.45 L-29.75 -20.95 -25.8 -21.1 -25.6 -21.1 Q-20.7 -19.1 -16.75 -16.15 L-16.7 -16.0 Q-22.8 -7.85 -30.9 -1.75 -33.5 0.2 -36.6 1.65 -42.3 1.5 -46.05 -0.6 L-51.4 -4.2 Q-52.25 -4.85 -52.35 -6.3" fill="#cccccc" fill-opacity="0.99607843" fill-rule="evenodd" stroke="none"/>
  </g>
</g></svg>