<svg xmlns:ffdec="https://www.free-decompiler.com/flash" xmlns:xlink="http://www.w3.org/1999/xlink" xmlns="http://www.w3.org/2000/svg" ffdec:objectType="shape" width="255.9" height="255.9" viewBox="0 0 255.9 255.9">
<g transform="translate(6.1444, -0.1)">
  <g transform="matrix(1.0, 0.0, 0.0, 1.0, 122.0, 128.0)">
    <path d="M90.2 -116.05 Q95.5 -118.4 102.95 -117.35 L105.8 -116.6 Q116.1 -112.7 120.1 -102.35 122.35 -96.6 121.25 -89.2 120.35 -83.05 116.35 -79.8 108.45 -73.4 97.25 -70.3 L96.45 -69.95 95.6 -68.25 95.5 -68.2 Q96.25 -57.25 90.75 -51.8 L86.9 -48.45 Q80.85 -43.8 70.2 -43.7 68.25 -34.75 60.3 -31.65 L60.3 -31.55 Q59.95 -17.55 46.65 -16.7 41.2 -16.35 38.1 -18.6 35.05 -20.8 33.55 -24.6 33.0 -25.95 31.45 -26.25 28.6 -26.75 26.5 -27.85 22.35 -25.4 16.3 -26.55 L15.0 -26.75 14.9 1.75 14.45 30.05 14.35 42.85 14.2 42.85 14.25 59.5 14.35 59.5 Q14.25 61.0 14.4 62.1 15.45 70.75 16.95 78.75 18.6 87.9 21.6 95.75 L29.2 116.55 31.25 121.9 Q32.45 124.7 31.95 127.7 L31.5 127.65 Q28.6 127.3 27.0 125.6 20.1 118.2 11.95 112.0 L11.5 112.05 Q9.15 112.45 7.6 113.7 2.7 117.8 -2.95 121.15 L-3.1 121.15 -4.7 121.15 -5.55 120.5 Q-12.75 116.05 -20.55 112.15 -27.2 117.55 -33.0 123.7 L-34.6 125.6 Q-36.15 127.7 -39.4 128.0 L-39.5 128.0 -39.6 125.15 -33.45 102.8 Q-30.35 91.4 -27.9 79.65 -25.55 68.4 -25.15 55.35 -24.9 48.45 -24.9 41.1 -24.9 26.65 -25.15 12.6 L-25.15 12.45 -25.15 -12.35 -25.15 -12.5 -25.15 -35.25 -25.15 -35.4 Q-24.8 -40.75 -25.8 -44.7 L-25.95 -44.7 Q-26.5 -45.3 -27.4 -45.65 L-28.35 -45.55 Q-33.65 -44.85 -36.2 -41.25 -41.3 -33.9 -46.95 -27.05 -50.2 -23.1 -56.7 -22.55 -60.55 -22.2 -63.15 -23.0 -68.75 -24.75 -72.05 -28.65 L-72.05 -28.85 -72.05 -30.25 -72.0 -30.3 Q-71.25 -32.05 -69.5 -32.65 L-69.35 -32.65 -66.95 -32.65 -66.9 -32.6 Q-65.5 -32.1 -64.4 -31.4 -58.3 -31.0 -55.4 -33.8 -49.95 -39.05 -46.5 -46.4 -42.5 -54.8 -31.9 -56.7 -34.95 -62.35 -44.05 -61.95 -46.85 -61.8 -49.1 -60.95 -56.0 -58.15 -60.75 -53.05 -64.25 -49.35 -70.95 -48.7 -75.1 -48.3 -76.55 -50.45 -76.95 -51.4 -76.25 -52.05 -74.6 -53.6 -74.0 -56.2 -74.75 -56.8 -75.9 -56.8 -90.8 -56.45 -98.5 -63.05 L-99.35 -64.05 Q-105.15 -72.65 -109.25 -83.0 -113.25 -93.2 -118.25 -102.5 L-119.8 -104.65 Q-121.75 -106.7 -122.0 -110.45 -121.25 -112.2 -119.3 -112.75 L-119.25 -112.85 -117.65 -112.85 -117.5 -112.85 Q-111.95 -107.7 -109.05 -99.75 -105.3 -89.3 -100.7 -79.65 -96.6 -71.2 -88.3 -67.15 -86.25 -66.15 -83.65 -66.85 -81.0 -67.6 -80.2 -70.3 -79.15 -73.85 -79.75 -78.15 -80.6 -84.4 -82.65 -89.5 -93.3 -93.15 -99.65 -101.15 -103.8 -106.3 -106.7 -112.9 -107.75 -115.3 -106.95 -118.15 -103.6 -118.45 -102.15 -116.0 L-99.9 -112.9 Q-94.7 -106.5 -87.95 -101.7 -86.25 -100.45 -83.25 -100.55 -79.9 -102.65 -81.45 -107.8 L-84.95 -118.7 -85.2 -120.2 -85.2 -120.85 -81.85 -121.2 -81.65 -121.2 Q-73.45 -115.1 -71.7 -102.6 -71.25 -99.2 -71.75 -95.75 L-72.75 -89.65 Q-73.7 -84.0 -72.95 -77.95 -72.15 -71.5 -68.55 -67.85 -65.75 -65.05 -60.6 -66.3 -56.6 -67.3 -54.95 -70.75 -55.55 -75.5 -57.55 -78.85 L-60.15 -83.5 -68.4 -99.55 -68.4 -101.0 -68.4 -101.15 Q-65.85 -103.7 -64.0 -106.9 L-63.9 -106.95 Q-64.05 -111.9 -66.75 -114.35 -69.25 -116.6 -70.8 -119.8 L-70.95 -120.4 Q-68.6 -122.1 -65.25 -120.7 -60.2 -118.65 -56.55 -115.1 -53.6 -112.25 -52.65 -107.7 -51.7 -103.25 -53.45 -100.45 -55.05 -97.85 -57.35 -95.9 -52.1 -86.8 -45.35 -79.25 -40.9 -74.25 -33.0 -72.85 L-30.95 -72.7 Q-29.2 -73.2 -28.45 -74.75 L-28.35 -74.75 Q-28.65 -83.45 -32.75 -88.3 -39.35 -96.05 -44.1 -105.55 -46.0 -109.4 -45.5 -114.95 -45.25 -118.2 -42.6 -118.95 -39.45 -117.6 -38.9 -113.55 L-38.3 -110.6 Q-36.95 -105.65 -32.7 -103.75 -31.25 -103.1 -29.0 -103.25 L-24.25 -106.6 -23.55 -106.8 Q-21.05 -104.65 -22.15 -99.95 -22.65 -97.85 -24.2 -96.7 -25.2 -96.0 -26.3 -95.4 -21.65 -89.35 -19.45 -80.95 L-19.25 -79.55 Q-19.25 -73.25 -18.5 -67.6 -18.25 -65.85 -17.15 -64.85 L-15.55 -64.85 -15.4 -64.85 Q-13.1 -65.8 -12.3 -68.35 L-12.2 -68.35 Q-12.0 -77.0 -15.45 -82.75 -17.75 -86.65 -18.15 -92.25 -18.7 -99.65 -16.85 -104.9 -13.05 -115.5 -4.85 -121.75 1.2 -126.35 10.4 -127.65 L17.4 -127.9 Q27.35 -127.3 33.9 -123.15 42.0 -118.05 46.5 -109.35 48.95 -108.0 52.45 -107.75 L52.6 -107.75 Q55.85 -111.7 60.1 -114.65 66.45 -119.05 76.6 -119.4 83.05 -119.65 87.35 -117.55 L90.2 -116.05 M2.8 108.0 Q6.35 105.3 8.45 101.15 8.05 99.2 7.15 97.85 1.5 89.1 -2.05 78.4 L-2.45 77.05 Q-3.25 74.0 -5.8 72.95 -7.0 73.3 -7.55 74.35 -9.05 77.15 -10.35 80.4 -14.35 90.6 -18.95 100.35 L-18.95 100.5 -18.95 102.25 -18.8 102.3 Q-12.75 108.85 -5.15 113.95 L-5.0 113.95 -3.75 113.95 Q-1.3 112.45 0.45 110.25 L2.8 108.0" fill="#cccccc" fill-opacity="0.99607843" fill-rule="evenodd" stroke="none"/>
  </g>
</g></svg>