<svg xmlns:ffdec="https://www.free-decompiler.com/flash" xmlns:xlink="http://www.w3.org/1999/xlink" xmlns="http://www.w3.org/2000/svg" ffdec:objectType="shape" width="256" height="256" viewBox="0 0 256 256">
<g transform="translate(49.2, 0)">
  <g transform="matrix(1.0, 0.0, 0.0, 1.0, 77.0, 128.0)">
    <path d="M27.8 -126.4 L32.45 -126.25 32.6 -126.25 35.0 -126.25 35.15 -126.25 39.95 -126.1 40.1 -126.1 47.5 -126.1 47.65 -126.1 52.45 -125.95 52.6 -125.95 57.4 -125.95 57.55 -125.95 62.35 -125.75 62.5 -125.75 67.5 -125.75 67.65 -125.75 72.3 -125.6 72.45 -125.6 72.6 -125.6 Q76.15 -125.75 79.3 -125.45 78.5 -124.45 77.35 -123.75 67.45 -117.7 59.95 -109.3 62.3 -99.7 65.3 -91.05 69.45 -79.05 72.8 -66.55 76.15 -53.9 78.35 -40.05 80.25 -28.15 80.6 -14.55 L80.6 -1.75 80.6 -1.6 80.6 -0.35 Q80.3 15.3 78.45 29.45 76.55 43.4 73.15 55.95 69.75 68.45 65.45 80.0 61.15 91.65 53.0 99.45 44.9 107.25 36.4 114.7 27.9 122.1 17.9 128.0 L17.7 127.95 Q13.65 126.4 12.45 121.9 20.8 114.35 28.05 105.75 35.35 97.05 40.6 86.5 45.95 75.8 49.3 63.2 52.7 50.7 54.75 36.8 55.95 28.8 56.1 19.65 56.4 17.55 56.3 15.05 L56.3 14.85 Q56.45 6.5 55.95 -1.15 54.95 -16.2 52.2 -29.45 49.45 -42.55 45.3 -54.4 41.15 -66.1 34.95 -75.85 28.75 -85.55 20.65 -93.35 12.5 -101.1 2.35 -107.0 -7.65 -112.8 -22.75 -113.6 L-22.75 -113.7 -28.55 -113.75 -28.55 -113.6 -28.7 -113.6 Q-31.3 -113.5 -33.0 -112.5 -30.45 -103.1 -22.05 -99.5 -13.25 -95.8 -4.7 -91.7 -11.55 -82.65 -17.1 -72.35 -22.7 -61.95 -25.5 -48.95 -26.55 -44.15 -26.95 -38.75 L-27.1 -38.75 -27.0 -33.75 -26.95 -33.75 Q-26.7 -27.75 -25.2 -22.9 -21.55 -10.75 -12.2 -4.2 -6.35 -0.1 3.75 -0.9 18.0 -2.0 22.65 -13.3 26.25 -22.05 21.9 -29.15 24.3 -15.25 16.8 -8.25 10.25 -2.1 -1.9 -4.8 -14.65 -7.7 -16.65 -21.5 -18.85 -36.65 -11.0 -44.4 -6.95 -48.35 -0.85 -49.8 11.55 -52.7 20.05 -47.4 29.9 -41.2 33.75 -29.25 37.1 -19.0 33.5 -8.75 29.4 2.8 18.75 8.15 13.5 10.8 6.05 10.95 -9.7 11.2 -18.2 3.75 -26.7 -3.7 -30.5 -15.7 -34.5 -28.15 -32.85 -44.3 -31.45 -58.5 -27.25 -70.25 -29.9 -67.95 -31.95 -65.0 -38.45 -55.65 -42.3 -43.55 -46.1 -31.4 -47.25 -16.65 -47.5 -0.5 -45.95 13.75 -44.4 28.3 -41.7 41.45 -38.95 54.7 -34.05 65.8 -29.2 76.75 -22.05 85.5 -14.95 94.2 -5.0 100.0 -8.4 101.4 -13.35 101.3 L-13.5 101.3 -13.65 101.3 -19.75 101.3 -19.9 101.3 -21.0 101.3 Q-23.55 100.25 -25.85 98.85 -35.8 92.95 -43.0 84.25 -50.15 75.5 -54.9 64.3 -59.65 53.1 -62.7 40.3 -65.8 27.45 -68.15 13.75 -70.5 0.25 -71.25 -14.9 L-71.25 -15.05 -71.25 -24.8 -70.9 -32.35 Q-69.85 -47.15 -67.8 -61.0 -65.7 -74.85 -64.05 -89.15 -62.8 -99.8 -62.6 -111.05 -62.5 -114.65 -64.8 -116.25 -71.9 -121.2 -77.0 -128.0 L-72.05 -128.0 -71.9 -128.0 -67.1 -127.85 -66.95 -127.85 -62.15 -127.85 -61.95 -127.85 -57.15 -127.7 -57.0 -127.7 -52.05 -127.7 -51.9 -127.7 -47.25 -127.55 -47.1 -127.55 -44.7 -127.55 -44.55 -127.55 -39.75 -127.35 -39.55 -127.35 -32.2 -127.35 -32.05 -127.35 -27.25 -127.2 -27.1 -127.2 -22.3 -127.2 -22.15 -127.2 -17.35 -127.05 -17.15 -127.05 -12.2 -127.05 -12.05 -127.05 -7.4 -126.9 -7.25 -126.9 -4.85 -126.9 -4.7 -126.9 0.1 -126.75 0.25 -126.75 7.65 -126.75 7.8 -126.75 12.6 -126.55 12.75 -126.55 17.55 -126.55 17.7 -126.55 22.5 -126.4 22.7 -126.4 27.65 -126.4 27.8 -126.4" fill="#cccccc" fill-opacity="0.99607843" fill-rule="evenodd" stroke="none"/>
  </g>
</g></svg>