<svg xmlns:ffdec="https://www.free-decompiler.com/flash" xmlns:xlink="http://www.w3.org/1999/xlink" xmlns="http://www.w3.org/2000/svg" ffdec:objectType="shape" width="256.4538" height="256.4538" viewBox="0 0 256.4538 256.4538">
<g transform="translate(0.0006, 0.0285)">
  <g transform="matrix(1.0, 0.0, 0.0, 1.0, 128.15, 128.2)">
    <path d="M59.45 -113.7 Q72.35 -106.75 82.55 -98.15 92.8 -89.45 100.75 -79.4 108.85 -69.25 114.65 -57.65 120.5 -46.1 124.0 -32.95 127.5 -19.8 128.2 -4.7 128.9 10.25 124.85 28.25 120.95 45.35 114.2 58.4 107.35 71.35 98.85 81.7 90.25 92.0 80.1 100.1 70.1 108.15 58.45 114.0 46.9 119.9 33.85 123.5 20.8 127.15 5.8 128.05 -9.0 128.9 -26.95 124.95 -44.3 121.15 -57.4 114.45 -70.6 107.75 -80.9 99.25 -91.3 90.65 -99.45 80.55 -107.5 70.45 -113.6 59.0 -119.65 47.65 -123.35 34.55 -127.05 21.55 -127.95 6.75 -128.9 -8.15 -125.35 -26.0 L-124.35 -31.0 Q-119.9 -47.55 -113.05 -60.3 -106.15 -73.25 -97.35 -83.3 -88.65 -93.4 -78.45 -101.35 -68.3 -109.25 -56.65 -115.1 -45.05 -120.85 -31.8 -124.25 -18.55 -127.6 -3.55 -128.15 11.65 -128.65 29.7 -124.5 46.6 -120.55 59.45 -113.7 M-81.4 -77.45 Q-90.45 -67.95 -97.55 -55.35 -104.65 -42.95 -109.05 -26.25 -112.45 -11.45 -112.25 0.9 -111.95 16.3 -108.3 29.35 -104.65 42.4 -98.25 53.65 -91.65 50.05 -86.25 44.8 -76.85 35.75 -66.5 28.1 -56.1 20.45 -44.95 13.9 -33.9 7.35 -21.8 2.25 L-21.7 2.3 Q-22.2 -4.45 -19.1 -10.6 -24.55 -16.0 -29.35 -21.8 -37.65 -31.7 -44.8 -42.45 -51.85 -53.2 -57.3 -64.95 -62.85 -76.9 -70.2 -87.35 -76.1 -82.9 -81.4 -77.45 M14.1 44.8 Q7.55 33.75 2.45 21.65 L2.35 21.6 Q-4.4 22.15 -10.6 19.05 -15.8 24.55 -21.5 29.2 -31.55 37.45 -42.25 44.5 -53.0 51.7 -64.65 57.2 -76.5 62.8 -87.15 70.05 -84.25 74.15 -80.65 77.85 -71.5 87.15 -59.75 94.75 -47.9 102.35 -32.05 107.15 -14.65 112.5 1.15 112.25 16.5 111.9 29.55 108.25 42.6 104.65 53.85 98.25 50.15 91.7 44.9 86.2 35.9 76.8 28.3 66.35 20.75 55.9 14.1 44.8 M21.9 -2.65 L21.85 -2.45 Q22.3 4.45 19.25 10.6 24.75 15.9 29.5 21.6 37.7 31.6 44.9 42.3 52.05 53.0 57.5 64.75 63.1 76.65 70.4 87.2 L78.0 80.6 Q87.4 71.5 94.95 59.75 102.55 47.85 107.2 32.2 112.5 14.6 112.25 -1.15 112.0 -16.45 108.4 -29.55 104.85 -42.6 98.45 -53.8 92.0 -50.15 86.55 -45.0 77.05 -36.0 66.6 -28.35 56.2 -20.8 45.2 -14.15 34.15 -7.55 21.9 -2.65 M80.95 -78.05 Q71.95 -87.45 60.05 -95.0 48.3 -102.5 32.55 -107.2 15.0 -112.45 -0.75 -112.3 -16.2 -112.1 -29.15 -108.45 -42.25 -104.85 -53.6 -98.65 -50.15 -91.9 -44.8 -86.3 -35.8 -76.85 -28.2 -66.45 -20.65 -56.0 -14.1 -44.95 -7.5 -33.85 -2.3 -21.8 L-2.15 -21.85 Q4.65 -22.35 10.6 -19.25 L12.1 -20.8 Q21.5 -29.9 31.9 -37.5 42.3 -45.1 53.4 -51.65 59.0 -54.9 64.9 -57.6 76.9 -63.05 87.4 -70.4 84.45 -74.4 80.95 -78.05" fill="#cccccc" fill-opacity="0.99607843" fill-rule="evenodd" stroke="none"/>
  </g>
</g></svg>