<svg xmlns:ffdec="https://www.free-decompiler.com/flash" xmlns:xlink="http://www.w3.org/1999/xlink" xmlns="http://www.w3.org/2000/svg" ffdec:objectType="shape" width="256" height="256" viewBox="0 0 256 256">
<g transform="translate(23.8778, 0)">
  <g transform="matrix(1.0, 0.0, 0.0, 1.0, 104.0, 128.0)">
    <path d="M5.0 -51.55 L5.0 -51.6 -0.3 -51.7 -0.3 -51.55 -3.5 -51.2 Q-13.65 -49.2 -20.15 -43.55 -27.85 -36.9 -33.2 -28.0 -38.6 -19.05 -42.65 -8.8 -46.7 1.5 -49.7 13.05 -52.6 24.25 -53.4 37.75 L-53.4 40.8 -53.4 40.95 -53.55 40.95 -53.5 44.6 -53.4 44.6 -53.4 46.55 -53.4 46.7 -53.35 49.9 -53.25 49.9 Q-52.55 63.05 -50.6 75.0 -50.45 75.95 -50.8 77.05 -52.0 81.15 -53.75 84.95 -53.4 87.35 -52.25 88.85 -46.0 97.0 -39.4 104.65 -36.7 107.75 -33.25 110.05 -27.25 106.95 -23.75 101.3 L-23.65 101.25 -23.5 96.15 -23.5 96.0 Q-23.2 94.45 -23.3 92.45 L-23.35 92.3 -23.35 92.15 -23.35 90.55 Q-23.05 88.9 -23.15 86.85 L-23.15 86.7 -23.15 86.55 Q-23.05 79.7 -23.35 73.25 -26.85 69.9 -30.65 66.8 -38.45 60.3 -44.45 52.0 L-45.6 50.35 Q-48.55 46.2 -48.95 39.35 -44.55 37.95 -39.3 38.65 -26.45 40.3 -16.35 44.4 -14.15 45.3 -12.35 46.35 -10.5 47.45 -9.25 49.1 L-5.35 73.75 Q-3.8 83.7 -1.4 92.8 0.9 93.9 4.2 93.4 L6.25 93.1 Q9.25 81.8 11.4 69.45 L13.4 57.4 Q14.1 52.95 15.55 49.35 16.1 48.1 17.2 47.4 26.0 41.9 38.35 39.7 L47.4 38.7 51.4 38.7 51.55 38.7 51.7 38.7 Q53.5 38.65 54.25 39.65 54.65 42.55 53.75 44.85 50.15 53.8 43.85 59.95 36.6 67.05 28.8 73.6 L28.8 73.75 28.2 82.55 28.2 88.65 28.2 88.8 28.0 88.8 28.1 100.65 28.2 100.65 Q28.3 104.3 30.4 106.1 L33.8 109.25 Q35.45 110.8 37.6 111.85 46.3 106.2 52.35 97.9 55.8 93.2 58.25 87.5 L58.25 86.05 58.25 85.9 Q56.35 82.7 55.5 78.65 55.3 77.85 55.5 76.95 57.8 65.05 58.8 51.5 L58.9 45.4 Q59.15 44.0 59.05 42.2 L59.05 42.05 59.05 41.9 59.05 37.6 59.05 37.4 Q59.15 35.7 58.9 34.4 58.4 22.2 55.85 12.0 52.95 0.7 48.8 -9.45 44.6 -19.55 38.9 -28.25 33.25 -36.85 25.5 -43.4 17.75 -50.0 5.0 -51.55 M84.0 -125.15 Q89.45 -117.45 93.75 -108.65 98.45 -99.05 101.1 -87.4 103.8 -75.7 104.2 -61.95 104.6 -47.35 101.9 -35.7 99.25 -24.05 94.85 -14.2 90.4 -4.25 84.3 4.0 78.2 12.15 70.75 19.0 L71.7 32.95 71.7 33.1 71.75 36.6 71.85 36.6 71.85 38.7 71.85 38.85 71.85 44.6 71.85 44.8 71.75 49.25 Q71.25 62.95 69.0 75.15 68.4 78.55 69.8 81.0 71.8 84.45 72.65 88.95 69.7 95.55 65.95 101.3 60.35 110.0 53.1 117.05 45.85 124.15 35.4 128.0 L35.05 127.7 Q27.15 121.25 20.15 113.9 L16.85 110.05 Q14.1 106.55 7.7 106.7 L7.7 106.65 4.0 106.55 3.85 106.55 1.8 106.55 1.8 106.45 -6.05 106.4 -6.05 106.55 -6.2 106.55 -8.75 106.55 Q-13.3 109.2 -16.75 113.0 -23.55 120.5 -31.15 127.2 -33.85 126.35 -36.1 125.1 -45.2 119.9 -51.9 112.25 -58.6 104.65 -64.05 95.75 -66.8 91.3 -68.45 85.75 -66.0 81.0 -64.4 75.6 -64.2 74.75 -64.3 74.05 -66.2 61.5 -66.8 47.8 L-66.85 45.1 -66.85 44.95 -66.85 41.4 Q-66.75 32.25 -64.95 24.9 -64.7 23.8 -65.15 23.15 -68.15 18.65 -72.1 15.0 -79.55 8.1 -85.3 -0.45 -91.05 -9.0 -95.3 -19.05 -99.5 -29.2 -101.95 -41.15 -104.35 -53.0 -103.95 -67.7 -103.2 -81.25 -100.2 -92.5 -97.15 -103.85 -92.35 -113.25 -88.15 -121.55 -82.2 -128.0 -68.4 -128.0 -57.1 -125.4 -56.55 -125.3 -56.3 -124.8 -56.25 -121.75 -57.55 -119.3 -62.6 -109.9 -66.1 -99.2 -69.15 -89.85 -69.9 -78.25 L-70.05 -78.25 -69.95 -71.4 -69.9 -71.4 Q-69.45 -57.45 -64.8 -47.85 -60.15 -38.15 -54.2 -29.85 -52.5 -27.45 -50.35 -25.6 -44.65 -34.2 -38.35 -42.25 -32.1 -50.3 -23.8 -56.3 -15.45 -62.3 -3.35 -64.55 3.1 -65.75 9.9 -64.4 21.65 -62.05 30.1 -56.2 38.6 -50.35 44.95 -42.45 50.45 -35.6 55.35 -28.2 61.75 -36.1 66.5 -45.8 68.8 -50.6 70.4 -56.05 72.3 -62.75 72.5 -71.05 L72.55 -71.05 Q72.75 -74.8 72.5 -78.1 L72.45 -79.7 Q71.6 -93.1 67.1 -103.0 62.7 -112.85 58.55 -123.05 L58.55 -123.2 58.55 -125.0 68.65 -125.6 68.8 -125.6 78.25 -125.6 78.4 -125.6 78.55 -125.6 84.0 -125.15" fill="#cccccc" fill-opacity="0.99607843" fill-rule="evenodd" stroke="none"/>
  </g>
</g></svg>