<svg xmlns:ffdec="https://www.free-decompiler.com/flash" xmlns:xlink="http://www.w3.org/1999/xlink" xmlns="http://www.w3.org/2000/svg" ffdec:objectType="shape" width="256.0409" height="256.0409" viewBox="0 0 256.0409 256.0409">
<g transform="translate(0.0204, 45.3705)">
  <g transform="matrix(1.0, 0.0, 0.0, 1.0, 128.0, 82.0)">
    <path d="M72.55 -82.0 L75.1 -82.0 75.35 -82.0 Q89.2 -81.8 99.2 -77.3 109.25 -73.05 115.85 -65.35 122.5 -57.7 125.45 -46.4 128.25 -36.35 128.0 -23.15 L127.8 -23.15 127.8 -20.35 127.8 -20.15 Q128.0 -18.65 127.8 -17.8 L127.8 -17.6 Q123.95 -16.95 120.35 -17.6 L120.35 -13.75 120.35 -13.55 120.35 -10.35 120.35 -8.4 Q119.9 5.45 115.65 15.7 L115.2 16.35 Q111.6 23.15 109.7 31.9 L109.7 32.55 109.7 32.75 109.45 32.75 109.7 36.8 Q110.95 46.6 115.65 53.25 L116.7 55.55 120.15 55.55 120.35 55.55 Q122.25 56.2 122.7 58.15 L123.35 65.8 123.35 66.0 123.35 68.35 123.35 72.0 123.35 72.2 123.35 76.05 123.35 76.25 123.35 83.1 123.35 83.3 117.8 83.3 89.2 83.3 82.8 83.3 54.2 83.3 Q54.2 82.45 54.85 81.8 L55.9 80.95 57.6 78.4 Q59.1 75.6 60.2 72.4 61.9 66.9 66.35 64.1 66.15 60.05 64.9 57.05 L62.3 50.65 Q60.2 45.55 57.0 41.5 52.3 41.9 48.45 43.0 L40.35 44.9 Q33.3 46.2 30.55 42.15 29.9 41.05 29.7 39.8 28.8 33.2 25.2 29.55 22.85 27.2 22.85 23.15 L30.1 21.25 Q32.25 20.6 32.45 18.65 31.15 17.6 28.6 17.6 22.85 17.4 20.1 14.0 L20.1 13.75 Q20.3 11.2 20.95 8.85 20.1 7.35 18.6 6.5 L16.45 6.1 Q10.7 6.1 10.9 0.35 15.6 -9.25 21.8 -17.35 23.5 -19.7 23.5 -23.55 22.2 -26.35 20.3 -28.05 L20.1 -28.05 Q20.3 -31.45 21.8 -33.6 L22.65 -35.5 Q24.75 -42.75 27.55 -49.6 25.6 -51.05 22.85 -52.15 22.4 -52.35 22.2 -52.8 22.4 -55.55 24.15 -57.7 L27.35 -61.75 Q33.1 -70.25 42.05 -75.8 49.5 -80.5 60.6 -81.8 L63.8 -81.8 64.0 -81.8 72.35 -82.0 72.55 -82.0 M-101.3 -37.65 Q-95.35 -46.15 -85.5 -50.65 -78.05 -53.85 -68.05 -54.5 L-61.0 -54.5 -60.8 -54.5 Q-46.9 -54.05 -37.5 -49.15 L-35.2 -47.85 Q-28.35 -43.2 -28.35 -31.65 L-28.55 -28.7 Q-24.95 -21.4 -22.4 -13.3 -21.95 -12.45 -21.95 -11.4 L-21.75 -10.75 Q-23.45 -9.05 -24.5 -7.15 -24.5 -1.8 -22.15 1.2 -21.75 1.4 -21.5 1.6 -18.1 6.1 -16.0 11.85 L-15.75 13.15 -15.75 14.2 Q-17.45 18.05 -23.0 18.25 -24.3 18.25 -24.95 19.1 L-24.5 24.2 -24.7 24.85 -29.85 25.5 Q-32.4 25.95 -34.1 27.2 -32.6 28.7 -29.85 30.0 -27.3 31.05 -24.5 31.7 L-24.7 37.65 Q-24.7 41.05 -25.15 43.65 L-25.6 46.0 Q-26.65 52.8 -34.95 51.3 -40.3 50.25 -45.0 48.55 -47.1 47.7 -49.9 47.45 -54.6 53.0 -58.2 59.65 -59.5 61.75 -59.9 64.75 -56.95 67.1 -55.45 70.7 L-52.25 78.2 -54.4 78.4 -57.15 78.4 -57.35 78.4 -60.55 78.4 -60.8 78.4 -64.2 78.4 -64.4 78.4 -68.45 78.4 -68.65 78.4 -74.2 78.4 -74.2 78.6 -94.25 78.6 -98.3 78.4 -98.55 78.4 -101.1 78.4 -104.95 78.4 -107.7 78.4 -107.9 78.4 -110.05 78.4 -110.05 78.2 -112.4 78.2 -117.3 77.55 Q-119.45 77.1 -120.95 75.85 -128.4 69.0 -128.0 54.3 -127.55 52.6 -126.9 51.5 -125.0 53.45 -123.3 56.0 -121.8 58.35 -119.0 59.65 L-117.75 59.65 Q-113.25 56.85 -111.55 51.1 -109.65 44.25 -109.0 36.15 -108.8 31.45 -110.5 28.5 -112.6 24.65 -112.85 18.9 L-112.85 18.65 -113.05 16.1 -113.05 15.9 -113.05 13.35 -112.85 11.0 -112.85 10.8 -112.85 8.0 Q-111.55 -5.0 -109.4 -17.15 -107.3 -29.3 -101.3 -37.65" fill="#cccccc" fill-opacity="0.99607843" fill-rule="evenodd" stroke="none"/>
  </g>
</g></svg>