<svg width="2196" height="2196" viewBox="0 0 2196 2196" fill="none" xmlns="http://www.w3.org/2000/svg">
<path fill-rule="evenodd" clip-rule="evenodd" d="M123.482 757.228L178.363 735.276L290.869 850.526H422.584C407.949 733.446 418.01 626.429 452.768 529.472C483.867 439.833 534.175 363 603.691 298.972C667.719 238.603 744.552 192.869 834.191 161.77C920.171 130.671 1010.72 115.121 1105.85 115.121C1200.98 115.121 1291.53 130.671 1377.51 161.77C1467.15 194.699 1543.98 240.433 1608.01 298.972C1677.53 363 1727.84 439.833 1758.93 529.472C1791.86 626.429 1801.01 733.446 1786.38 850.526L1909.86 839.55L2025.11 738.02L2060.78 754.484L2003.16 965.776L1712.29 1240.18L1583.32 1629.84C1572.34 1628.01 1561.36 1627.09 1550.39 1627.09C1539.41 1627.09 1529.35 1628.01 1520.2 1629.84C1511.06 1633.49 1501.91 1638.07 1492.76 1643.56C1485.44 1649.04 1478.13 1655.45 1470.81 1662.76C1463.49 1671.91 1457.09 1681.97 1451.6 1692.95C1444.28 1705.75 1438.8 1719.47 1435.14 1734.11C1429.65 1748.74 1425.99 1765.21 1424.16 1783.5C1420.5 1801.8 1417.76 1821.92 1415.93 1843.87C1406.78 1845.7 1398.55 1848.44 1391.23 1852.1C1383.92 1855.76 1376.6 1859.42 1369.28 1863.08C1361.96 1866.74 1355.56 1871.31 1350.07 1876.8C1342.75 1880.46 1336.35 1885.03 1330.86 1890.52C1325.38 1896.01 1320.8 1902.41 1317.14 1909.73C1313.48 1915.22 1309.83 1921.62 1306.17 1928.94C1302.51 1936.25 1299.76 1944.49 1297.93 1953.63C1294.28 1962.78 1292.45 1971.93 1292.45 1981.07C1288.79 1986.56 1286.04 1992.05 1284.21 1997.54C1282.39 2001.2 1279.64 2005.77 1275.98 2011.26C1274.15 2014.92 1272.32 2018.58 1270.49 2022.23C1266.84 2025.89 1264.09 2029.55 1262.26 2033.21C1260.43 2035.04 1258.6 2037.78 1256.77 2041.44C1253.12 2043.27 1250.37 2045.1 1248.54 2046.93C1246.71 2048.76 1243.97 2050.59 1240.31 2052.42C1238.48 2052.42 1235.74 2053.33 1232.08 2055.16C1230.25 2055.16 1228.42 2055.16 1226.59 2055.16C1224.76 2055.16 1222.93 2055.16 1221.1 2055.16C1219.27 2053.33 1217.44 2052.42 1215.61 2052.42C1215.61 2050.59 1214.7 2049.67 1212.87 2049.67C1211.04 2047.85 1210.13 2046.02 1210.13 2044.19C1208.3 2042.36 1207.38 2040.53 1207.38 2038.7C1205.55 2036.87 1204.64 2035.04 1204.64 2033.21C1204.64 2031.38 1203.72 2028.64 1201.89 2024.98C1203.72 2010.34 1205.55 1995.71 1207.38 1981.07C1207.38 1968.27 1207.38 1956.38 1207.38 1945.4C1209.21 1932.6 1209.21 1921.62 1207.38 1912.47C1207.38 1903.33 1207.38 1894.18 1207.38 1885.03C1205.55 1877.71 1203.72 1870.4 1201.89 1863.08C1200.06 1857.59 1198.23 1852.1 1196.41 1846.62C1194.58 1841.13 1191.83 1836.55 1188.17 1832.89C1186.34 1827.41 1183.6 1823.75 1179.94 1821.92C1178.11 1825.58 1176.28 1829.24 1174.45 1832.89C1172.62 1834.72 1170.79 1837.47 1168.96 1841.13C1168.96 1844.79 1168.05 1847.53 1166.22 1849.36C1164.39 1853.02 1162.56 1855.76 1160.73 1857.59C1158.9 1859.42 1156.16 1861.25 1152.5 1863.08C1150.67 1864.91 1148.84 1866.74 1147.01 1868.57C1145.18 1870.4 1143.35 1872.23 1141.52 1874.06C1139.69 1875.89 1137.87 1876.8 1136.04 1876.8C1134.21 1876.8 1132.38 1875.89 1130.55 1874.06C1128.72 1872.23 1126.89 1870.4 1125.06 1868.57C1123.23 1868.57 1121.4 1867.65 1119.57 1865.82C1119.57 1863.99 1118.66 1862.16 1116.83 1860.34C1115 1858.51 1114.08 1855.76 1114.08 1852.1C1112.25 1850.27 1111.34 1848.44 1111.34 1846.62C1109.51 1842.96 1108.6 1840.21 1108.6 1838.38C1108.6 1834.72 1107.68 1831.98 1105.85 1830.15C1105.85 1833.81 1105.85 1836.55 1105.85 1838.38C1105.85 1840.21 1105.85 1842.96 1105.85 1846.62C1105.85 1848.44 1105.85 1850.27 1105.85 1852.1C1105.85 1855.76 1105.85 1858.51 1105.85 1860.34C1104.02 1862.16 1103.11 1863.99 1103.11 1865.82C1101.28 1867.65 1099.45 1869.48 1097.62 1871.31C1095.79 1873.14 1093.96 1874.97 1092.13 1876.8C1090.3 1876.8 1088.47 1877.71 1086.64 1879.54C1082.98 1877.71 1079.33 1875.89 1075.67 1874.06C1073.84 1872.23 1071.09 1870.4 1067.43 1868.57C1065.61 1866.74 1063.78 1863.99 1061.95 1860.34C1058.29 1858.51 1055.54 1856.68 1053.71 1854.85C1051.89 1851.19 1050.06 1848.44 1048.23 1846.62C1046.4 1842.96 1045.48 1840.21 1045.48 1838.38C1043.65 1834.72 1041.82 1831.07 1039.99 1827.41C1039.99 1825.58 1039.08 1822.83 1037.25 1819.17C1033.59 1822.83 1029.93 1827.41 1026.27 1832.89C1022.62 1838.38 1019.87 1844.79 1018.04 1852.1C1014.38 1857.59 1011.64 1863.99 1009.81 1871.31C1007.98 1880.46 1007.07 1888.69 1007.07 1896.01C1005.24 1905.15 1004.32 1915.22 1004.32 1926.19C1004.32 1935.34 1004.32 1945.4 1004.32 1956.38C1004.32 1967.35 1005.24 1979.24 1007.07 1992.05C1007.07 2003.03 1007.98 2014.92 1009.81 2027.72C1009.81 2031.38 1008.9 2034.13 1007.07 2035.95C1007.07 2037.78 1007.07 2039.61 1007.07 2041.44C1005.24 2045.1 1004.32 2047.85 1004.32 2049.67C1002.49 2051.5 1000.66 2052.42 998.834 2052.42C998.834 2054.25 997.919 2055.16 996.09 2055.16C994.26 2056.99 992.431 2057.91 990.602 2057.91C988.772 2057.91 986.943 2057.91 985.113 2057.91C983.284 2057.91 980.54 2057.91 976.881 2057.91C975.052 2056.08 972.308 2054.25 968.649 2052.42C966.82 2048.76 964.99 2046.02 963.161 2044.19C961.332 2042.36 959.502 2039.61 957.673 2035.95C954.014 2034.13 952.185 2031.38 952.185 2027.72C950.356 2025.89 948.526 2023.15 946.697 2019.49C944.867 2015.83 943.038 2013.09 941.209 2011.26C941.209 2007.6 940.294 2003.94 938.465 2000.28C938.465 1996.62 938.465 1992.96 938.465 1989.31C936.635 1978.33 933.891 1968.27 930.233 1959.12C926.574 1949.97 922 1940.83 916.512 1931.68C912.854 1922.53 908.28 1915.22 902.792 1909.73C897.304 1902.41 891.816 1896.01 886.328 1890.52C880.84 1883.2 874.437 1877.71 867.119 1874.06C861.631 1868.57 855.229 1863.99 847.911 1860.34C840.594 1856.68 833.276 1853.02 825.959 1849.36C818.641 1847.53 810.409 1844.79 801.262 1841.13C797.604 1819.17 793.03 1799.05 787.542 1780.76C782.054 1762.46 775.651 1746 768.334 1731.37C762.846 1716.73 756.443 1703.92 749.125 1692.95C743.637 1680.14 736.32 1669.17 727.173 1660.02C719.856 1650.87 712.538 1643.56 705.221 1638.07C696.074 1632.58 686.927 1628.01 677.78 1624.35C668.633 1620.69 658.572 1618.86 647.596 1618.86C638.449 1618.86 628.387 1619.77 617.411 1621.6L482.953 1237.44L194.828 974.008L123.482 757.228ZM644.852 1229.2C648.51 1234.69 653.084 1240.18 658.572 1245.67C662.23 1252.99 667.719 1259.39 675.036 1264.88C680.524 1272.19 686.927 1278.6 694.244 1284.09C701.562 1291.4 708.879 1297.81 716.197 1303.29C723.514 1310.61 731.746 1317.01 740.893 1322.5C748.211 1327.99 756.443 1333.48 765.59 1338.97C774.736 1342.63 783.883 1346.28 793.03 1349.94C804.006 1355.43 814.068 1359.09 823.215 1360.92C836.02 1364.58 847.911 1368.24 858.887 1371.89C869.863 1375.55 879.925 1379.21 889.072 1382.87C896.389 1386.53 903.707 1391.1 911.024 1396.59C916.512 1400.25 922 1404.82 927.488 1410.31C931.147 1413.97 934.806 1418.54 938.465 1424.03C942.123 1427.69 944.867 1433.18 946.697 1440.5C948.526 1444.15 951.27 1448.73 954.929 1454.22C958.588 1463.36 960.417 1468.85 960.417 1470.68L1031.76 1308.78L1039.99 1330.73L954.929 1517.33C953.1 1510.01 951.27 1502.69 949.441 1495.38C949.441 1488.06 947.611 1481.66 943.953 1476.17C942.123 1470.68 940.294 1465.19 938.465 1459.7C936.635 1454.22 933.891 1449.64 930.233 1445.98C928.403 1440.5 925.659 1435.92 922 1432.26C918.342 1428.61 915.598 1425.86 913.768 1424.03C910.109 1420.37 905.536 1417.63 900.048 1415.8C896.389 1413.97 892.731 1413.06 889.072 1413.06C887.242 1422.2 883.584 1430.43 878.096 1437.75C874.437 1443.24 868.949 1447.81 861.631 1451.47C854.314 1453.3 846.996 1454.22 839.679 1454.22C832.361 1454.22 824.129 1452.39 814.983 1448.73C805.836 1446.9 797.604 1443.24 790.286 1437.75C781.139 1432.26 772.907 1425.86 765.59 1418.54C758.272 1411.23 751.869 1403.91 746.381 1396.59C740.893 1387.44 736.32 1378.3 732.661 1369.15C730.832 1363.66 719.856 1345.37 699.732 1314.27C696.074 1310.61 693.33 1307.87 691.5 1306.04C687.842 1302.38 685.098 1298.72 683.268 1295.06C679.609 1293.23 676.865 1290.49 675.036 1286.83C671.377 1283.17 668.633 1279.51 666.804 1275.85C664.975 1272.19 663.145 1268.54 661.316 1264.88C659.486 1261.22 657.657 1257.56 655.828 1253.9C653.998 1250.24 652.169 1245.67 650.34 1240.18C648.51 1236.52 646.681 1232.86 644.852 1229.2ZM1569.6 1229.2C1565.94 1234.69 1561.36 1240.18 1555.88 1245.67C1552.22 1252.99 1547.64 1259.39 1542.16 1264.88C1534.84 1272.19 1527.52 1278.6 1520.2 1284.09C1514.71 1291.4 1507.4 1297.81 1498.25 1303.29C1490.93 1310.61 1483.62 1317.01 1476.3 1322.5C1467.15 1327.99 1458 1333.48 1448.86 1338.97C1439.71 1342.63 1430.56 1346.28 1421.42 1349.94C1410.44 1355.43 1400.38 1359.09 1391.23 1360.92C1378.43 1364.58 1366.54 1368.24 1355.56 1371.89C1344.58 1375.55 1334.52 1379.21 1325.38 1382.87C1318.06 1386.53 1310.74 1391.1 1303.42 1396.59C1297.93 1400.25 1292.45 1404.82 1286.96 1410.31C1283.3 1413.97 1279.64 1418.54 1275.98 1424.03C1274.15 1427.69 1271.41 1433.18 1267.75 1440.5C1265.92 1444.15 1263.18 1448.73 1259.52 1454.22C1255.86 1463.36 1254.03 1468.85 1254.03 1470.68L1182.68 1308.78L1174.45 1330.73L1259.52 1517.33C1261.35 1510.01 1263.18 1502.69 1265.01 1495.38C1266.84 1488.06 1268.67 1481.66 1270.49 1476.17C1272.32 1470.68 1274.15 1465.19 1275.98 1459.7C1277.81 1454.22 1280.56 1449.64 1284.21 1445.98C1286.04 1440.5 1288.79 1435.92 1292.45 1432.26C1296.11 1428.61 1299.76 1425.86 1303.42 1424.03C1307.08 1420.37 1310.74 1417.63 1314.4 1415.8C1318.06 1413.97 1321.72 1413.06 1325.38 1413.06C1327.2 1422.2 1330.86 1430.43 1336.35 1437.75C1340.01 1443.24 1345.5 1447.81 1352.82 1451.47C1360.13 1453.3 1367.45 1454.22 1374.77 1454.22C1383.92 1454.22 1392.15 1452.39 1399.46 1448.73C1408.61 1446.9 1416.84 1443.24 1424.16 1437.75C1433.31 1432.26 1441.54 1425.86 1448.86 1418.54C1456.18 1411.23 1462.58 1403.91 1468.07 1396.59C1473.55 1387.44 1478.13 1378.3 1481.79 1369.15C1483.62 1363.66 1494.59 1345.37 1514.71 1314.27C1518.37 1310.61 1521.12 1307.87 1522.95 1306.04C1526.61 1302.38 1530.26 1298.72 1533.92 1295.06C1535.75 1293.23 1537.58 1290.49 1539.41 1286.83C1543.07 1283.17 1545.81 1279.51 1547.64 1275.85C1549.47 1272.19 1551.3 1268.54 1553.13 1264.88C1554.96 1261.22 1556.79 1257.56 1558.62 1253.9C1560.45 1250.24 1562.28 1245.67 1564.11 1240.18C1565.94 1236.52 1567.77 1232.86 1569.6 1229.2Z" fill="white"/>
</svg>
